<COLLADA xmlns="http://www.collada.org/2005/11/COLLADASchema" version="1.4.1">
  <asset>
    <created>2026-09-13T16:25:57.353236</created>
    <modified>2026-09-13T16:25:57.353236</modified>
    <up_axis>Y_UP</up_axis>
  </asset>
  <library_effects>
    <effect id="b7f3be944505425f983ff9100e04cbb0" name="b7f3be944505425f983ff9100e04cbb0">
      <profile_COMMON>
        <technique sid="common">
          <phong>
            <emission>
              <color>0.0 0.0 0.0 1.0</color>
            </emission>
            <ambient>
              <color>0.0 0.0 0.0 1.0</color>
            </ambient>
            <diffuse>
              <color>0.792156862745098 0.8196078431372549 0.9333333333333333 1.0</color>
            </diffuse>
            <specular>
              <color>0.0 0.0 0.0 1.0</color>
            </specular>
            <shininess>
              <float>0.0</float>
            </shininess>
            <reflective>
              <color>0.0 0.0 0.0 1.0</color>
            </reflective>
            <reflectivity>
              <float>0.0</float>
            </reflectivity>
            <transparent>
              <color>0.0 0.0 0.0 1.0</color>
            </transparent>
            <transparency>
              <float>1.0</float>
            </transparency>
          </phong>
        </technique>
        <extra>
          <technique profile="GOOGLEEARTH">
            <double_sided>0</double_sided>
          </technique>
        </extra>
      </profile_COMMON>
    </effect>
  </library_effects>
  <library_geometries>
    <geometry id="79dc7516c2604e27b69bf3a0d42b1123" name="719f78bad3c1455e8c36b5350fe77c6d">
      <mesh>
        <source id="verts-array">
          <float_array count="1128" id="verts-array-array">-0.009861093 0.0207794 0.012 -0.02027846 0.0367809 0.012 -0.01306666 0.0189286 0.012 -0.02448626 0.0341245 0.012 -0.01593386 0.0165877 0.012 0.01721454 -0.0152518 0.012 0.03338274 -0.0254856 0.012 0.01943824 -0.0122927 0.012 0.03616264 -0.0213583 0.012 0.02115834 -0.00901523 0.012 0.03843494 -0.0169312 0.012 0.02233054 -0.00550426 0.012 0.008154747 -0.0215054 0.012 0.01806154 -0.0379175 0.012 0.01149884 -0.0199186 0.012 0.02241944 -0.035515 0.012 0.01454504 -0.0178159 0.012 0.02646254 -0.032614 0.012 0.03013414 -0.0292551 0.012 -0.01838836 -0.0138171 0.012 -0.03181666 -0.0274185 0.012 -0.01593386 -0.0165877 0.012 -0.02835046 -0.030989 0.012 -0.01306666 -0.0189286 0.012 0.0009249539 0.0229813 0.012 -0.001245763 0.0419816 0.012 -0.002773503 0.0228323 0.012 -0.006202323 0.0415397 0.012 -0.006400163 0.0220919 0.012 -0.01107186 0.0405147 0.012 -0.01578596 0.038921 0.012 0.01149884 0.0199186 0.012 0.01806154 0.0379175 0.012 0.008154747 0.0215054 0.012 0.01345014 0.0397877 0.012 0.004599427 0.0225352 0.012 0.008649937 0.0410994 0.012 0.003728267 0.0418341 0.012 0.01943824 0.0122927 0.012 0.03338274 0.0254856 0.012 0.01721454 0.0152518 0.012 0.03013414 0.0292551 0.012 0.01454504 0.0178159 0.012 0.02646254 0.032614 0.012 0.02241944 0.035515 0.012 0.02292424 0.00185073 0.012 0.04133654 0.00742939 0.012 0.02233054 0.00550426 0.012 0.04016764 0.0122664 0.012 0.02115834 0.00901523 0.012 0.03843494 0.0169312 0.012 0.03616264 0.0213583 0.012 0.04016764 -0.0122664 0.012 0.04133654 -0.00742939 0.012 0.02292424 -0.00185073 0.012 0.04192504 -0.00248811 0.012 0.02299884 8.719772e-18 0.012 0.04199884 5.413232e-18 0.012 0.04192504 0.00248811 0.012 -0.002773503 -0.0228323 0.012 -0.001245763 -0.0419816 0.012 0.0009249539 -0.0229813 0.012 0.003728267 -0.0418341 0.012 0.004599427 -0.0225352 0.012 0.008649937 -0.0410994 0.012 0.01345014 -0.0397877 0.012 -0.02448626 -0.0341245 0.012 -0.02027846 -0.0367809 0.012 -0.009861093 -0.0207794 0.012 -0.01578596 -0.038921 0.012 -0.006400163 -0.0220919 0.012 -0.01107186 -0.0405147 0.012 -0.006202323 -0.0415397 0.012 -0.02270336 -0.00368946 0.012 -0.04082616 -0.00986521 0.012 -0.02181746 -0.00728336 0.012 -0.03937276 -0.0146245 0.012 -0.02036666 -0.0106886 0.012 -0.03736676 -0.0191784 0.012 -0.03483616 -0.0234632 0.012 -0.02181746 0.00728336 0.012 -0.04082616 0.00986521 0.012 -0.02270336 0.00368946 0.012 -0.04170636 0.00496747 0.012 -0.02300116 2.697121e-19 0.012 -0.04200116 2.697121e-19 0.012 -0.04170636 -0.00496747 0.012 -0.02835046 0.030989 0.012 -0.03181666 0.0274185 0.012 -0.01838836 0.0138171 0.012 -0.03483616 0.0234632 0.012 -0.02036666 0.0106886 0.012 -0.03736676 0.0191784 0.012 -0.03937276 0.0146245 0.012 -0.01306666 0.0189286 -0.012 -0.02027846 0.0367809 -0.012 -0.009861093 0.0207794 -0.012 -0.01578596 0.038921 -0.012 -0.006400163 0.0220919 -0.012 -0.01107186 0.0405147 -0.012 -0.002773503 0.0228323 -0.012 -0.02270336 0.00368946 -0.012 -0.04082616 0.00986521 -0.012 -0.02181746 0.00728336 -0.012 -0.03937276 0.0146245 -0.012 -0.02036666 0.0106886 -0.012 -0.03736676 0.0191784 -0.012 -0.01838836 0.0138171 -0.012 -0.02181746 -0.00728336 -0.012 -0.04082616 -0.00986521 -0.012 -0.02270336 -0.00368946 -0.012 -0.04170636 -0.00496747 -0.012 -0.02300116 2.697121e-19 -0.012 -0.04200116 2.697121e-19 -0.012 -0.04170636 0.00496747 -0.012 -0.03483616 0.0234632 -0.012 -0.03181666 0.0274185 -0.012 -0.01593386 0.0165877 -0.012 -0.02835046 0.030989 -0.012 -0.02448626 0.0341245 -0.012 -0.01593386 -0.0165877 -0.012 -0.03181666 -0.0274185 -0.012 -0.01838836 -0.0138171 -0.012 -0.03483616 -0.0234632 -0.012 -0.02036666 -0.0106886 -0.012 -0.03736676 -0.0191784 -0.012 -0.03937276 -0.0146245 -0.012 -0.009861093 -0.0207794 -0.012 -0.02027846 -0.0367809 -0.012 -0.01306666 -0.0189286 -0.012 -0.02448626 -0.0341245 -0.012 -0.02835046 -0.030989 -0.012 0.008154747 0.0215054 -0.012 0.01806154 0.0379175 -0.012 0.01149884 0.0199186 -0.012 0.02241944 0.035515 -0.012 0.01454504 0.0178159 -0.012 0.02646254 0.032614 -0.012 0.01721454 0.0152518 -0.012 -0.006202323 0.0415397 -0.012 -0.001245763 0.0419816 -0.012 0.0009249539 0.0229813 -0.012 0.003728267 0.0418341 -0.012 0.004599427 0.0225352 -0.012 0.008649937 0.0410994 -0.012 0.01345014 0.0397877 -0.012 0.0009249539 -0.0229813 -0.012 -0.001245763 -0.0419816 -0.012 -0.002773503 -0.0228323 -0.012 -0.006202323 -0.0415397 -0.012 -0.006400163 -0.0220919 -0.012 -0.01107186 -0.0405147 -0.012 -0.01578596 -0.038921 -0.012 0.02292424 -0.00185073 -0.012 0.04133654 -0.00742939 -0.012 0.02233054 -0.00550426 -0.012 0.04016764 -0.0122664 -0.012 0.02115834 -0.00901523 -0.012 0.03843494 -0.0169312 -0.012 0.01943824 -0.0122927 -0.012 0.03013414 0.0292551 -0.012 0.03338274 0.0254856 -0.012 0.01943824 0.0122927 -0.012 0.03616264 0.0213583 -0.012 0.02115834 0.00901523 -0.012 0.03843494 0.0169312 -0.012 0.02233054 0.00550426 -0.012 0.01149884 -0.0199186 -0.012 0.01806154 -0.0379175 -0.012 0.008154747 -0.0215054 -0.012 0.01345014 -0.0397877 -0.012 0.004599427 -0.0225352 -0.012 0.008649937 -0.0410994 -0.012 0.003728267 -0.0418341 -0.012 0.03616264 -0.0213583 -0.012 0.03338274 -0.0254856 -0.012 0.01721454 -0.0152518 -0.012 0.03013414 -0.0292551 -0.012 0.01454504 -0.0178159 -0.012 0.02646254 -0.032614 -0.012 0.02241944 -0.035515 -0.012 0.04016764 0.0122664 -0.012 0.04133654 0.00742939 -0.012 0.02292424 0.00185073 -0.012 0.04192504 0.00248811 -0.012 0.02299884 3.086402e-18 -0.012 0.04199884 1.570021e-17 -0.012 0.04192504 -0.00248811 -0.012 -0.02300116 -5.363668e-18 0.012 -0.02300116 -5.363668e-18 -0.012 -0.02270336 0.00368946 0.012 -0.02270336 0.00368946 -0.012 -0.02181746 0.00728336 0.012 -0.02181746 0.00728336 -0.012 -0.02036666 0.0106886 0.012 -0.02036666 0.0106886 -0.012 -0.01838836 0.0138171 0.012 -0.01838836 0.0138171 -0.012 -0.01593386 0.0165877 0.012 -0.01593386 0.0165877 -0.012 -0.01306666 0.0189286 0.012 -0.01306666 0.0189286 -0.012 -0.009861093 0.0207794 0.012 -0.009861093 0.0207794 -0.012 -0.006400163 0.0220919 0.012 -0.006400163 0.0220919 -0.012 -0.002773503 0.0228323 0.012 -0.002773503 0.0228323 -0.012 0.0009249539 0.0229813 0.012 0.0009249539 0.0229813 -0.012 0.004599427 0.0225352 0.012 0.004599427 0.0225352 -0.012 0.008154747 0.0215054 0.012 0.008154747 0.0215054 -0.012 0.01149884 0.0199186 0.012 0.01149884 0.0199186 -0.012 0.01454504 0.0178159 0.012 0.01454504 0.0178159 -0.012 0.01721454 0.0152518 0.012 0.01721454 0.0152518 -0.012 0.01943824 0.0122927 0.012 0.01943824 0.0122927 -0.012 0.02115834 0.00901523 0.012 0.02115834 0.00901523 -0.012 0.02233054 0.00550426 0.012 0.02233054 0.00550426 -0.012 0.02292424 0.00185073 0.012 0.02292424 0.00185073 -0.012 0.02299884 3.086402e-18 0.012 0.02299884 8.719772e-18 -0.012 0.02292424 -0.00185073 0.012 0.02292424 -0.00185073 -0.012 0.02233054 -0.00550426 0.012 0.02233054 -0.00550426 -0.012 0.02115834 -0.00901523 0.012 0.02115834 -0.00901523 -0.012 0.01943824 -0.0122927 0.012 0.01943824 -0.0122927 -0.012 0.01721454 -0.0152518 0.012 0.01721454 -0.0152518 -0.012 0.01454504 -0.0178159 0.012 0.01454504 -0.0178159 -0.012 0.01149884 -0.0199186 0.012 0.01149884 -0.0199186 -0.012 0.008154747 -0.0215054 0.012 0.008154747 -0.0215054 -0.012 0.004599427 -0.0225352 0.012 0.004599427 -0.0225352 -0.012 0.0009249539 -0.0229813 0.012 0.0009249539 -0.0229813 -0.012 -0.002773503 -0.0228323 0.012 -0.002773503 -0.0228323 -0.012 -0.006400163 -0.0220919 0.012 -0.006400163 -0.0220919 -0.012 -0.009861093 -0.0207794 0.012 -0.009861093 -0.0207794 -0.012 -0.01306666 -0.0189286 0.012 -0.01306666 -0.0189286 -0.012 -0.01593386 -0.0165877 0.012 -0.01593386 -0.0165877 -0.012 -0.01838836 -0.0138171 0.012 -0.01838836 -0.0138171 -0.012 -0.02036666 -0.0106886 0.012 -0.02036666 -0.0106886 -0.012 -0.02181746 -0.00728336 0.012 -0.02181746 -0.00728336 -0.012 -0.02270336 -0.00368946 0.012 -0.02270336 -0.00368946 -0.012 0.04192504 0.00248811 0.012 0.04199884 1.570021e-17 0.012 0.04199884 5.413232e-18 -0.012 0.04192504 -0.00248811 -0.012 0.04192504 -0.00248811 0.012 0.04133654 -0.00742939 0.012 0.04133654 -0.00742939 -0.012 0.04016764 -0.0122664 0.012 0.04016764 -0.0122664 -0.012 0.03843494 -0.0169312 0.012 0.03843494 -0.0169312 -0.012 0.03616264 -0.0213583 0.012 0.03616264 -0.0213583 -0.012 0.03338274 -0.0254856 0.012 0.03338274 -0.0254856 -0.012 0.03013414 -0.0292551 0.012 0.03013414 -0.0292551 -0.012 0.02646254 -0.032614 0.012 0.02646254 -0.032614 -0.012 0.02241944 -0.035515 0.012 0.02241944 -0.035515 -0.012 0.01806154 -0.0379175 0.012 0.01806154 -0.0379175 -0.012 0.01345014 -0.0397877 0.012 0.01345014 -0.0397877 -0.012 0.008649937 -0.0410994 0.012 0.008649937 -0.0410994 -0.012 0.003728267 -0.0418341 0.012 0.003728267 -0.0418341 -0.012 -0.001245763 -0.0419816 0.012 -0.001245763 -0.0419816 -0.012 -0.006202323 -0.0415397 0.012 -0.006202323 -0.0415397 -0.012 -0.01107186 -0.0405147 0.012 -0.01107186 -0.0405147 -0.012 -0.01578596 -0.038921 0.012 -0.01578596 -0.038921 -0.012 -0.02027846 -0.0367809 0.012 -0.02027846 -0.0367809 -0.012 -0.02448626 -0.0341245 0.012 -0.02448626 -0.0341245 -0.012 -0.02835046 -0.030989 0.012 -0.02835046 -0.030989 -0.012 -0.03181666 -0.0274185 0.012 -0.03181666 -0.0274185 -0.012 -0.03483616 -0.0234632 0.012 -0.03483616 -0.0234632 -0.012 -0.03736676 -0.0191784 0.012 -0.03736676 -0.0191784 -0.012 -0.03937276 -0.0146245 0.012 -0.03937276 -0.0146245 -0.012 -0.04082616 -0.00986521 0.012 -0.04082616 -0.00986521 -0.012 -0.04170636 -0.00496747 0.012 -0.04170636 -0.00496747 -0.012 -0.04200116 2.697121e-19 0.012 -0.04200116 2.697121e-19 -0.012 -0.04170636 0.00496747 0.012 -0.04170636 0.00496747 -0.012 -0.04082616 0.00986521 0.012 -0.04082616 0.00986521 -0.012 -0.03937276 0.0146245 0.012 -0.03937276 0.0146245 -0.012 -0.03736676 0.0191784 0.012 -0.03736676 0.0191784 -0.012 -0.03483616 0.0234632 0.012 -0.03483616 0.0234632 -0.012 -0.03181666 0.0274185 0.012 -0.03181666 0.0274185 -0.012 -0.02835046 0.030989 0.012 -0.02835046 0.030989 -0.012 -0.02448626 0.0341245 0.012 -0.02448626 0.0341245 -0.012 -0.02027846 0.0367809 0.012 -0.02027846 0.0367809 -0.012 -0.01578596 0.038921 0.012 -0.01578596 0.038921 -0.012 -0.01107186 0.0405147 0.012 -0.01107186 0.0405147 -0.012 -0.006202323 0.0415397 0.012 -0.006202323 0.0415397 -0.012 -0.001245763 0.0419816 0.012 -0.001245763 0.0419816 -0.012 0.003728267 0.0418341 0.012 0.003728267 0.0418341 -0.012 0.008649937 0.0410994 0.012 0.008649937 0.0410994 -0.012 0.01345014 0.0397877 0.012 0.01345014 0.0397877 -0.012 0.01806154 0.0379175 0.012 0.01806154 0.0379175 -0.012 0.02241944 0.035515 0.012 0.02241944 0.035515 -0.012 0.02646254 0.032614 0.012 0.02646254 0.032614 -0.012 0.03013414 0.0292551 0.012 0.03013414 0.0292551 -0.012 0.03338274 0.0254856 0.012 0.03338274 0.0254856 -0.012 0.03616264 0.0213583 0.012 0.03616264 0.0213583 -0.012 0.03843494 0.0169312 0.012 0.03843494 0.0169312 -0.012 0.04016764 0.0122664 0.012 0.04016764 0.0122664 -0.012 0.04133654 0.00742939 0.012 0.04133654 0.00742939 -0.012 0.04192504 0.00248811 -0.012</float_array>
          <technique_common>
            <accessor count="376" source="#verts-array-array" stride="3">
              <param type="float" name="X"/>
              <param type="float" name="Y"/>
              <param type="float" name="Z"/>
            </accessor>
          </technique_common>
        </source>
        <source id="normals-array">
          <float_array count="1128" id="normals-array-array">0 0 1 0 0 1 0 0 1 0 0 1 0 0 1 0 0 1 0 0 1 0 0 1 0 0 1 0 0 1 0 0 1 0 0 1 0 0 1 0 0 1 0 0 1 0 0 1 0 0 1 0 0 1 0 0 1 0 0 1 0 0 1 0 0 1 0 0 1 0 0 1 0 0 1 0 0 1 0 0 1 0 0 1 0 0 1 0 0 1 0 0 1 0 0 1 0 0 1 0 0 1 0 0 1 0 0 1 0 0 1 0 0 1 0 0 1 0 0 1 0 0 1 0 0 1 0 0 1 0 0 1 0 0 1 0 0 1 0 0 1 0 0 1 0 0 1 0 0 1 0 0 1 0 0 1 0 0 1 0 0 1 0 0 1 0 0 1 0 0 1 0 0 1 0 0 1 0 0 1 0 0 1 0 0 1 0 0 1 0 0 1 0 0 1 0 0 1 0 0 1 0 0 1 0 0 1 0 0 1 0 0 1 0 0 1 0 0 1 0 0 1 0 0 1 0 0 1 0 0 1 0 0 1 0 0 1 0 0 1 0 0 1 0 0 1 0 0 1 0 0 1 0 0 1 0 0 1 0 0 1 0 0 1 0 0 1 0 0 1 0 0 1 0 0 1 0 0 1 0 0 1 0 0 -1 0 0 -1 0 0 -1 0 0 -1 0 0 -1 0 0 -1 0 0 -1 0 0 -1 0 0 -1 0 0 -1 0 0 -1 0 0 -1 0 0 -1 0 0 -1 0 0 -1 0 0 -1 0 0 -1 0 0 -1 0 0 -1 0 0 -1 0 0 -1 0 0 -1 0 0 -1 0 0 -1 0 0 -1 0 0 -1 0 0 -1 0 0 -1 0 0 -1 0 0 -1 0 0 -1 0 0 -1 0 0 -1 0 0 -1 0 0 -1 0 0 -1 0 0 -1 0 0 -1 0 0 -1 0 0 -1 0 0 -1 0 0 -1 0 0 -1 0 0 -1 0 0 -1 0 0 -1 0 0 -1 0 0 -1 0 0 -1 0 0 -1 0 0 -1 0 0 -1 0 0 -1 0 0 -1 0 0 -1 0 0 -1 0 0 -1 0 0 -1 0 0 -1 0 0 -1 0 0 -1 0 0 -1 0 0 -1 0 0 -1 0 0 -1 0 0 -1 0 0 -1 0 0 -1 0 0 -1 0 0 -1 0 0 -1 0 0 -1 0 0 -1 0 0 -1 0 0 -1 0 0 -1 0 0 -1 0 0 -1 0 0 -1 0 0 -1 0 0 -1 0 0 -1 0 0 -1 0 0 -1 0 0 -1 0 0 -1 0 0 -1 0 0 -1 0 0 -1 0 0 -1 0 0 -1 0 0 -1 0 0 -1 0 0 -1 1 1.246445e-16 0 1 1.240905e-16 0 0.9870495 -0.1604162 0 0.9870495 -0.1604162 0 0.9485344 -0.316674 0 0.9485344 -0.316674 0 0.8854605 -0.4647147 0 0.8854605 -0.4647147 0 0.799448 -0.6007353 0 0.799448 -0.6007353 0 0.6927198 -0.7212068 0 0.6927198 -0.7212068 0 0.5680625 -0.8229854 0 0.5680625 -0.8229854 0 0.4286927 -0.9034504 0 0.4286927 -0.9034504 0 0.278212 -0.9605197 0 0.278212 -0.9605197 0 0.1205325 -0.9927094 0 0.1205325 -0.9927094 0 -0.04026342 -0.9991891 0 -0.04026342 -0.9991891 0 -0.2000162 -0.9797926 0 -0.2000162 -0.9797926 0 -0.3546046 -0.9350163 0 -0.3546046 -0.9350163 0 -0.5000068 -0.8660215 0 -0.5000068 -0.8660215 0 -0.6324513 -0.7746001 0 -0.6324513 -0.7746001 0 -0.7485057 -0.6631284 0 -0.7485057 -0.6631284 0 -0.8451886 -0.5344682 0 -0.8451886 -0.5344682 0 -0.9199784 -0.391969 0 -0.9199784 -0.391969 0 -0.9709416 -0.2393166 0 -0.9709416 -0.2393166 0 -0.9949351 -0.1005194 0 -0.9949351 -0.1005194 -4.503266e-18 -1 -6.189434e-17 4.498704e-18 -1 -1.81262e-16 -4.498704e-18 -0.9949351 0.1005194 4.503266e-18 -0.9949351 0.1005194 0 -0.9709416 0.2393166 0 -0.9709416 0.2393166 0 -0.9199784 0.391969 0 -0.9199784 0.391969 0 -0.8451886 0.5344682 0 -0.8451886 0.5344682 0 -0.7485057 0.6631284 0 -0.7485057 0.6631284 0 -0.6324513 0.7746001 0 -0.6324513 0.7746001 0 -0.5000068 0.8660215 0 -0.5000068 0.8660215 0 -0.3546046 0.9350163 0 -0.3546046 0.9350163 0 -0.2000162 0.9797926 0 -0.2000162 0.9797926 0 -0.04026342 0.9991891 0 -0.04026342 0.9991891 0 0.1205325 0.9927094 0 0.1205325 0.9927094 0 0.278212 0.9605197 0 0.278212 0.9605197 0 0.4286927 0.9034504 0 0.4286927 0.9034504 0 0.5680625 0.8229854 0 0.5680625 0.8229854 0 0.6927198 0.7212068 0 0.6927198 0.7212068 0 0.799448 0.6007353 0 0.799448 0.6007353 0 0.8854605 0.4647147 0 0.8854605 0.4647147 0 0.9485344 0.316674 0 0.9485344 0.316674 0 0.9870495 0.1604162 0 0.9870495 0.1604162 0 0.9972561 0.07402856 -5.941754e-18 1 1.900333e-16 -5.938498e-18 1 5.745194e-17 5.938498e-18 0.9972561 -0.07402856 5.941754e-18 0.9972561 -0.07402856 0 0.9842306 -0.1768903 0 0.9842306 -0.1768903 0 0.9564002 -0.2920594 0 0.9564002 -0.2920594 0 0.9151456 -0.4031235 0 0.9151456 -0.4031235 0 0.8610443 -0.50853 0 0.8610443 -0.50853 0 0.7948544 -0.6068002 0 0.7948544 -0.6068002 0 0.7175074 -0.6965508 0 0.7175074 -0.6965508 0 0.6300895 -0.7765226 0 0.6300895 -0.7765226 0 0.5338211 -0.8455974 0 0.5338211 -0.8455974 0 0.4300649 -0.902798 0 0.4300649 -0.902798 0 0.3202741 -0.9473249 0 0.3202741 -0.9473249 0 0.2059807 -0.978556 0 0.2059807 -0.978556 0 0.08879773 -0.9960497 0 0.08879773 -0.9960497 0 -0.02963273 -0.9995609 0 -0.02963273 -0.9995609 0 -0.1476497 -0.9890397 0 -0.1476497 -0.9890397 0 -0.2635842 -0.9646364 0 -0.2635842 -0.9646364 0 -0.3758257 -0.9266904 0 -0.3758257 -0.9266904 0 -0.4827947 -0.8757335 0 -0.4827947 -0.8757335 0 -0.5829815 -0.8124855 0 -0.5829815 -0.8124855 0 -0.6749843 -0.7378321 0 -0.6749843 -0.7378321 0 -0.7575129 -0.6528202 0 -0.7575129 -0.6528202 0 -0.8294063 -0.5586459 0 -0.8294063 -0.5586459 0 -0.889657 -0.4566293 0 -0.889657 -0.4566293 0 -0.937418 -0.3482062 0 -0.937418 -0.3482062 0 -0.9720227 -0.2348868 0 -0.9720227 -0.2348868 0 -0.9929815 -0.1182695 0 -0.9929815 -0.1182695 0 -1 0 0 -1 0 0 -0.9929815 0.1182695 0 -0.9929815 0.1182695 0 -0.9720227 0.2348868 0 -0.9720227 0.2348868 0 -0.937418 0.3482062 0 -0.937418 0.3482062 0 -0.889657 0.4566293 0 -0.889657 0.4566293 0 -0.8294063 0.5586459 0 -0.8294063 0.5586459 0 -0.7575129 0.6528202 0 -0.7575129 0.6528202 0 -0.6749843 0.7378321 0 -0.6749843 0.7378321 0 -0.5829815 0.8124855 0 -0.5829815 0.8124855 0 -0.4827947 0.8757335 0 -0.4827947 0.8757335 0 -0.3758257 0.9266904 0 -0.3758257 0.9266904 0 -0.2635842 0.9646364 0 -0.2635842 0.9646364 0 -0.1476497 0.9890397 0 -0.1476497 0.9890397 0 -0.02963273 0.9995609 0 -0.02963273 0.9995609 0 0.08879773 0.9960497 0 0.08879773 0.9960497 0 0.2059807 0.978556 0 0.2059807 0.978556 0 0.3202741 0.9473249 0 0.3202741 0.9473249 0 0.4300649 0.902798 0 0.4300649 0.902798 0 0.5338211 0.8455974 0 0.5338211 0.8455974 0 0.6300895 0.7765226 0 0.6300895 0.7765226 0 0.7175074 0.6965508 0 0.7175074 0.6965508 0 0.7948544 0.6068002 0 0.7948544 0.6068002 0 0.8610443 0.50853 0 0.8610443 0.50853 0 0.9151456 0.4031235 0 0.9151456 0.4031235 0 0.9564002 0.2920594 0 0.9564002 0.2920594 0 0.9842306 0.1768903 0 0.9842306 0.1768903 0 0.9972561 0.07402856 0</float_array>
          <technique_common>
            <accessor count="376" source="#normals-array-array" stride="3">
              <param type="float" name="X"/>
              <param type="float" name="Y"/>
              <param type="float" name="Z"/>
            </accessor>
          </technique_common>
        </source>
        <vertices id="verts-array-vertices">
          <input semantic="POSITION" source="#verts-array"/>
        </vertices>
        <triangles count="376" material="material0">
          <input offset="0" semantic="VERTEX" source="#verts-array-vertices"/>
          <input offset="1" semantic="NORMAL" source="#normals-array"/>
          <p>0 0 1 1 2 2 3 3 2 2 1 1 2 2 3 3 4 4 5 5 6 6 7 7 8 8 7 7 6 6 7 7 8 8 9 9 10 10 9 9 8 8 9 9 10 10 11 11 12 12 13 13 14 14 15 15 14 14 13 13 14 14 15 15 16 16 17 17 16 16 15 15 16 16 17 17 5 5 18 18 5 5 17 17 5 5 18 18 6 6 19 19 20 20 21 21 22 22 21 21 20 20 21 21 22 22 23 23 24 24 25 25 26 26 27 27 26 26 25 25 26 26 27 27 28 28 29 29 28 28 27 27 28 28 29 29 0 0 30 30 0 0 29 29 0 0 30 30 1 1 31 31 32 32 33 33 34 34 33 33 32 32 33 33 34 34 35 35 36 36 35 35 34 34 35 35 36 36 24 24 37 37 24 24 36 36 24 24 37 37 25 25 38 38 39 39 40 40 41 41 40 40 39 39 40 40 41 41 42 42 43 43 42 42 41 41 42 42 43 43 31 31 44 44 31 31 43 43 31 31 44 44 32 32 45 45 46 46 47 47 48 48 47 47 46 46 47 47 48 48 49 49 50 50 49 49 48 48 49 49 50 50 38 38 51 51 38 38 50 50 38 38 51 51 39 39 10 10 52 52 11 11 53 53 11 11 52 52 11 11 53 53 54 54 55 55 54 54 53 53 54 54 55 55 56 56 57 57 56 56 55 55 56 56 57 57 45 45 58 58 45 45 57 57 45 45 58 58 46 46 59 59 60 60 61 61 62 62 61 61 60 60 61 61 62 62 63 63 64 64 63 63 62 62 63 63 64 64 12 12 65 65 12 12 64 64 12 12 65 65 13 13 22 22 66 66 23 23 67 67 23 23 66 66 23 23 67 67 68 68 69 69 68 68 67 67 68 68 69 69 70 70 71 71 70 70 69 69 70 70 71 71 59 59 72 72 59 59 71 71 59 59 72 72 60 60 73 73 74 74 75 75 76 76 75 75 74 74 75 75 76 76 77 77 78 78 77 77 76 76 77 77 78 78 19 19 79 79 19 19 78 78 19 19 79 79 20 20 80 80 81 81 82 82 83 83 82 82 81 81 82 82 83 83 84 84 85 85 84 84 83 83 84 84 85 85 73 73 86 86 73 73 85 85 73 73 86 86 74 74 3 3 87 87 4 4 88 88 4 4 87 87 4 4 88 88 89 89 90 90 89 89 88 88 89 89 90 90 91 91 92 92 91 91 90 90 91 91 92 92 80 80 93 93 80 80 92 92 80 80 93 93 81 81 94 94 95 95 96 96 97 97 96 96 95 95 96 96 97 97 98 98 99 99 98 98 97 97 98 98 99 99 100 100 101 101 102 102 103 103 104 104 103 103 102 102 103 103 104 104 105 105 106 106 105 105 104 104 105 105 106 106 107 107 108 108 109 109 110 110 111 111 110 110 109 109 110 110 111 111 112 112 113 113 112 112 111 111 112 112 113 113 101 101 114 114 101 101 113 113 101 101 114 114 102 102 106 106 115 115 107 107 116 116 107 107 115 115 107 107 116 116 117 117 118 118 117 117 116 116 117 117 118 118 94 94 119 119 94 94 118 118 94 94 119 119 95 95 120 120 121 121 122 122 123 123 122 122 121 121 122 122 123 123 124 124 125 125 124 124 123 123 124 124 125 125 108 108 126 126 108 108 125 125 108 108 126 126 109 109 127 127 128 128 129 129 130 130 129 129 128 128 129 129 130 130 120 120 131 131 120 120 130 130 120 120 131 131 121 121 132 132 133 133 134 134 135 135 134 134 133 133 134 134 135 135 136 136 137 137 136 136 135 135 136 136 137 137 138 138 99 99 139 139 100 100 140 140 100 100 139 139 100 100 140 140 141 141 142 142 141 141 140 140 141 141 142 142 143 143 144 144 143 143 142 142 143 143 144 144 132 132 145 145 132 132 144 144 132 132 145 145 133 133 146 146 147 147 148 148 149 149 148 148 147 147 148 148 149 149 150 150 151 151 150 150 149 149 150 150 151 151 127 127 152 152 127 127 151 151 127 127 152 152 128 128 153 153 154 154 155 155 156 156 155 155 154 154 155 155 156 156 157 157 158 158 157 157 156 156 157 157 158 158 159 159 137 137 160 160 138 138 161 161 138 138 160 160 138 138 161 161 162 162 163 163 162 162 161 161 162 162 163 163 164 164 165 165 164 164 163 163 164 164 165 165 166 166 167 167 168 168 169 169 170 170 169 169 168 168 169 169 170 170 171 171 172 172 171 171 170 170 171 171 172 172 146 146 173 173 146 146 172 172 146 146 173 173 147 147 158 158 174 174 159 159 175 175 159 159 174 174 159 159 175 175 176 176 177 177 176 176 175 175 176 176 177 177 178 178 179 179 178 178 177 177 178 178 179 179 167 167 180 180 167 167 179 179 167 167 180 180 168 168 165 165 181 181 166 166 182 182 166 166 181 181 166 166 182 182 183 183 184 184 183 183 182 182 183 183 184 184 185 185 186 186 185 185 184 184 185 185 186 186 153 153 187 187 153 153 186 186 153 153 187 187 154 154 188 188 189 189 190 190 191 191 190 190 189 189 190 190 191 191 192 192 193 193 192 192 191 191 192 192 193 193 194 194 195 195 194 194 193 193 194 194 195 195 196 196 197 197 196 196 195 195 196 196 197 197 198 198 199 199 198 198 197 197 198 198 199 199 200 200 201 201 200 200 199 199 200 200 201 201 202 202 203 203 202 202 201 201 202 202 203 203 204 204 205 205 204 204 203 203 204 204 205 205 206 206 207 207 206 206 205 205 206 206 207 207 208 208 209 209 208 208 207 207 208 208 209 209 210 210 211 211 210 210 209 209 210 210 211 211 212 212 213 213 212 212 211 211 212 212 213 213 214 214 215 215 214 214 213 213 214 214 215 215 216 216 217 217 216 216 215 215 216 216 217 217 218 218 219 219 218 218 217 217 218 218 219 219 220 220 221 221 220 220 219 219 220 220 221 221 222 222 223 223 222 222 221 221 222 222 223 223 224 224 225 225 224 224 223 223 224 224 225 225 226 226 227 227 226 226 225 225 226 226 227 227 228 228 229 229 228 228 227 227 228 228 229 229 230 230 231 231 230 230 229 229 230 230 231 231 232 232 233 233 232 232 231 231 232 232 233 233 234 234 235 235 234 234 233 233 234 234 235 235 236 236 237 237 236 236 235 235 236 236 237 237 238 238 239 239 238 238 237 237 238 238 239 239 240 240 241 241 240 240 239 239 240 240 241 241 242 242 243 243 242 242 241 241 242 242 243 243 244 244 245 245 244 244 243 243 244 244 245 245 246 246 247 247 246 246 245 245 246 246 247 247 248 248 249 249 248 248 247 247 248 248 249 249 250 250 251 251 250 250 249 249 250 250 251 251 252 252 253 253 252 252 251 251 252 252 253 253 254 254 255 255 254 254 253 253 254 254 255 255 256 256 257 257 256 256 255 255 256 256 257 257 258 258 259 259 258 258 257 257 258 258 259 259 260 260 261 261 260 260 259 259 260 260 261 261 262 262 263 263 262 262 261 261 262 262 263 263 264 264 265 265 264 264 263 263 264 264 265 265 266 266 267 267 266 266 265 265 266 266 267 267 188 188 189 189 188 188 267 267 268 268 269 269 270 270 270 270 269 269 271 271 269 269 272 272 271 271 273 273 271 271 272 272 271 271 273 273 274 274 275 275 274 274 273 273 274 274 275 275 276 276 277 277 276 276 275 275 276 276 277 277 278 278 279 279 278 278 277 277 278 278 279 279 280 280 281 281 280 280 279 279 280 280 281 281 282 282 283 283 282 282 281 281 282 282 283 283 284 284 285 285 284 284 283 283 284 284 285 285 286 286 287 287 286 286 285 285 286 286 287 287 288 288 289 289 288 288 287 287 288 288 289 289 290 290 291 291 290 290 289 289 290 290 291 291 292 292 293 293 292 292 291 291 292 292 293 293 294 294 295 295 294 294 293 293 294 294 295 295 296 296 297 297 296 296 295 295 296 296 297 297 298 298 299 299 298 298 297 297 298 298 299 299 300 300 301 301 300 300 299 299 300 300 301 301 302 302 303 303 302 302 301 301 302 302 303 303 304 304 305 305 304 304 303 303 304 304 305 305 306 306 307 307 306 306 305 305 306 306 307 307 308 308 309 309 308 308 307 307 308 308 309 309 310 310 311 311 310 310 309 309 310 310 311 311 312 312 313 313 312 312 311 311 312 312 313 313 314 314 315 315 314 314 313 313 314 314 315 315 316 316 317 317 316 316 315 315 316 316 317 317 318 318 319 319 318 318 317 317 318 318 319 319 320 320 321 321 320 320 319 319 320 320 321 321 322 322 323 323 322 322 321 321 322 322 323 323 324 324 325 325 324 324 323 323 324 324 325 325 326 326 327 327 326 326 325 325 326 326 327 327 328 328 329 329 328 328 327 327 328 328 329 329 330 330 331 331 330 330 329 329 330 330 331 331 332 332 333 333 332 332 331 331 332 332 333 333 334 334 335 335 334 334 333 333 334 334 335 335 336 336 337 337 336 336 335 335 336 336 337 337 338 338 339 339 338 338 337 337 338 338 339 339 340 340 341 341 340 340 339 339 340 340 341 341 342 342 343 343 342 342 341 341 342 342 343 343 344 344 345 345 344 344 343 343 344 344 345 345 346 346 347 347 346 346 345 345 346 346 347 347 348 348 349 349 348 348 347 347 348 348 349 349 350 350 351 351 350 350 349 349 350 350 351 351 352 352 353 353 352 352 351 351 352 352 353 353 354 354 355 355 354 354 353 353 354 354 355 355 356 356 357 357 356 356 355 355 356 356 357 357 358 358 359 359 358 358 357 357 358 358 359 359 360 360 361 361 360 360 359 359 360 360 361 361 362 362 363 363 362 362 361 361 362 362 363 363 364 364 365 365 364 364 363 363 364 364 365 365 366 366 367 367 366 366 365 365 366 366 367 367 368 368 369 369 368 368 367 367 368 368 369 369 370 370 371 371 370 370 369 369 370 370 371 371 372 372 373 373 372 372 371 371 372 372 373 373 374 374 268 268 374 374 373 373 374 374 268 268 375 375 270 270 375 375 268 268</p>
        </triangles>
      </mesh>
    </geometry>
  </library_geometries>
  <library_materials>
    <material id="41ba119090794f5da79dec801c95b25b" name="defaultmaterial">
      <instance_effect url="#b7f3be944505425f983ff9100e04cbb0"/>
    </material>
  </library_materials>
  <library_visual_scenes>
    <visual_scene id="scene">
      <node id="node0" name="node0">
        <instance_geometry url="#79dc7516c2604e27b69bf3a0d42b1123">
          <bind_material>
            <technique_common>
              <instance_material symbol="material0" target="#41ba119090794f5da79dec801c95b25b"/>
            </technique_common>
          </bind_material>
        </instance_geometry>
      </node>
    </visual_scene>
  </library_visual_scenes>
  <scene>
    <instance_visual_scene url="#scene"/>
  </scene>
</COLLADA>
