<COLLADA xmlns="http://www.collada.org/2005/11/COLLADASchema" version="1.4.1">
  <asset>
    <created>2026-09-13T16:25:57.654001</created>
    <modified>2026-09-13T16:25:57.654001</modified>
    <up_axis>Y_UP</up_axis>
  </asset>
  <library_effects>
    <effect id="95d9757644e34720a97d440e08460978" name="95d9757644e34720a97d440e08460978">
      <profile_COMMON>
        <technique sid="common">
          <phong>
            <emission>
              <color>0.0 0.0 0.0 1.0</color>
            </emission>
            <ambient>
              <color>0.0 0.0 0.0 1.0</color>
            </ambient>
            <diffuse>
              <color>0.792156862745098 0.8196078431372549 0.9333333333333333 1.0</color>
            </diffuse>
            <specular>
              <color>0.0 0.0 0.0 1.0</color>
            </specular>
            <shininess>
              <float>0.0</float>
            </shininess>
            <reflective>
              <color>0.0 0.0 0.0 1.0</color>
            </reflective>
            <reflectivity>
              <float>0.0</float>
            </reflectivity>
            <transparent>
              <color>0.0 0.0 0.0 1.0</color>
            </transparent>
            <transparency>
              <float>1.0</float>
            </transparency>
          </phong>
        </technique>
        <extra>
          <technique profile="GOOGLEEARTH">
            <double_sided>0</double_sided>
          </technique>
        </extra>
      </profile_COMMON>
    </effect>
  </library_effects>
  <library_geometries>
    <geometry id="b3120a9ed6c945dfb28f544801e2ddf7" name="9ccedb2c2b0c48a588e68aed35f417c8">
      <mesh>
        <source id="verts-array">
          <float_array count="2232" id="verts-array-array">0.004651368 -0.007618725 -0.004617345 0.003901085 -0.00786642 -0.004858456 0.002344372 -0.001208416 -0.001468426 -0.002769883 0.009053636 0.003370379 -0.001627003 0.009229671 0.00362848 -0.001670891 0.008150243 0.003036718 -0.007397409 0.0001443658 -0.002120732 -0.00760107 0.0001903978 -0.002124741 -0.002098901 0.007018295 0.002361812 -0.00904703 -0.002327947 -0.003696513 -0.008078462 -0.001072132 -0.002877504 -0.007891633 -0.001162696 -0.002900046 -0.008235712 -0.0009431934 -0.002829938 -0.009072733 -0.002278563 -0.003673382 -0.008352676 -0.0007846854 -0.0027606 -0.009448787 -0.001269399 -0.003179484 -0.008421383 -0.0006073933 -0.002674207 -0.009586676 -0.0007547358 -0.002919933 -0.008437147 -0.0004234069 -0.002576649 -0.009690462 -0.0002357609 -0.002653191 -0.008398893 -0.0002452729 -0.002474581 -0.009794361 0.0008078156 -0.002101903 -0.008309237 -8.511517e-05 -0.002374949 -0.001866389 0.008101004 0.002982192 -0.002037456 0.008007608 0.002907191 -0.003872147 0.008757169 0.003052731 -0.002172424 0.007876382 0.002816806 -0.0049183 0.008344386 0.002679973 -0.002262083 0.007716215 0.002717169 -0.005893664 0.007821094 0.002257342 -0.002300345 0.007538116 0.002615118 -0.00678456 0.007194681 0.001790795 -0.002284572 0.007354095 0.002517543 -0.007578461 0.006473827 0.00128682 -0.002215858 0.007176767 0.002431132 -0.007807702 0.0001887555 -0.002155032 -0.008832279 0.00479088 0.0001955346 -0.0007995618 0.007727878 0.002931589 -0.0009165184 0.007886351 0.003000909 -0.0001035885 0.009261429 0.003862464 -0.001073775 0.008015298 0.003048479 -0.0004595398 0.009282798 0.003823409 -0.001260594 0.008105836 0.003071009 -0.001464256 0.00815185 0.00306699 -0.008264248 0.005668831 0.0007525861 -0.007687971 -0.001208728 -0.002896038 -0.00748134 -0.001207085 -0.002865747 -0.001624635 -0.001389442 -0.002131347 -0.007285829 -0.00115788 -0.002811238 -0.007114771 -0.001064467 -0.002736229 -0.006979804 -0.0009332148 -0.00264583 -0.006890148 -0.000773057 -0.002546198 -0.001680379 -0.00135388 -0.002119989 -0.006851895 -0.000594923 -0.002444129 -0.002121098 -0.0009233964 -0.001949187 -0.007210579 5.38018e-05 -0.002143274 -0.001941645 0.006889348 0.002314242 -0.007053329 -7.513655e-05 -0.00219084 -0.001754826 0.00679881 0.002291712 -0.006936365 -0.0002336445 -0.002260178 -0.008174271 4.613743e-05 -0.00228455 -0.00975903 0.001846731 -0.001533333 -0.008003213 0.0001395499 -0.002209541 -0.009584948 0.002866274 -0.0009555297 -0.009274587 0.003852301 -0.0003765161 -0.001551164 0.006752796 0.00229573 -0.002059771 0.002201838 -0.0002452287 -0.0016035 0.002565095 1.673412e-05 0.001397383 0.002638969 0.0004837837 -0.001149031 0.006803642 0.002380528 0.00145312 0.002603442 0.0004724432 -0.0009779639 0.006897038 0.002455529 -0.0008429962 0.007028264 0.002545915 -0.00240656 0.001751971 -0.0005385947 -0.002626446 0.001237959 -0.0008486984 -0.002708402 0.0006855911 -0.001159982 -0.006867658 -0.0004109366 -0.002346572 -0.002648325 0.000122566 -0.001456838 -0.002449229 -0.0004228811 -0.001724379 0.0008023264 0.002869294 0.0005240523 0.0001732768 0.002979363 0.0004942541 -0.001344529 0.006754403 0.002326003 -0.0004582507 0.002963822 0.0003959677 -0.001060569 0.002823353 0.0002340722 -0.0007533372 0.007188431 0.002645552 -0.0007150747 0.00736653 0.002747603 -0.0007308476 0.007550551 0.002845178 0.002450734 -0.008210672 -0.005251552 0.001293533 -0.008325456 -0.005478466 0.001712469 -0.007205649 -0.004811437 0.0009790521 -0.006604315 -0.004589606 0.001047757 -0.006781603 -0.004675998 -0.002210668 -0.007930954 -0.005763066 0.002510287 -0.006769978 -0.004461597 0.00254854 -0.00659184 -0.004359526 0.002532777 -0.006407858 -0.004261971 0.002464072 -0.00623057 -0.00417558 0.002347106 -0.006072058 -0.00410624 0.002189852 -0.005943124 -0.004058677 0.002003026 -0.005852556 -0.004036132 0.002307981 -0.001255628 -0.001499213 0.00179936 -0.005806523 -0.004040141 0.001851698 -0.001618832 -0.001761149 -0.001053646 -0.008184604 -0.005736029 0.001164723 -0.006940115 -0.004745338 0.0001199102 -0.008316722 -0.005640716 0.001321977 -0.007069048 -0.004792901 0.001508802 -0.007159617 -0.004815446 0.001919096 -0.007204007 -0.004781146 0.002114602 -0.007154803 -0.004726639 0.003575279 -0.007973983 -0.004963159 0.002285665 -0.007061389 -0.004651628 0.002420625 -0.006930132 -0.004561228 0.0009632883 -0.006420333 -0.004492051 -0.00635682 -0.005796573 -0.005195238 0.001001542 -0.006242194 -0.00438998 -0.007200022 -0.005020545 -0.004894269 -0.001149173 -0.001692759 -0.002228225 0.001397227 -0.00585737 -0.004124939 0.001226164 -0.005950784 -0.004199949 0.001091204 -0.00608204 -0.00429035 -0.008567569 -0.00324911 -0.004127962 -0.007940402 -0.004167395 -0.004536835 -0.003334918 -0.007559323 -0.005721444 -0.004410616 -0.007074937 -0.005611752 -0.005422649 -0.006484591 -0.005435524 -0.0005541281 -0.001923031 -0.002268467 7.493167e-05 -0.002033144 -0.002238691 0.001592733 -0.005808166 -0.004070431 0.0007064552 -0.002017585 -0.002140396 0.001308777 -0.001877134 -0.00197851 0.01002696 8.381376e-05 0.0003256329 0.01004231 -0.000382526 7.485936e-05 0.002618373 -0.0008529456 -0.001236621 0.009937431 -0.001413583 -0.0004993439 0.00969478 -0.002418147 -0.001078778 0.009317789 -0.003382132 -0.001655316 0.008811727 -0.004291992 -0.002220859 0.008183719 -0.005134963 -0.002767471 0.007442565 -0.005899209 -0.003287478 0.006598682 -0.006574 -0.003773579 0.005663915 -0.007149869 -0.004218952 0.007458784 0.0008924349 0.0003988457 0.007645613 0.0008018709 0.0003763036 0.007849275 0.0007558389 0.0003803121 0.008055906 0.0007574812 0.0004106033 0.008251417 0.0008066868 0.0004651122 0.008685351 0.001369644 0.0008322208 0.009834881 0.001700972 0.001175505 0.008647098 0.00119151 0.0007301521 0.01000797 0.0006605399 0.0006357667 0.008557442 0.001031352 0.0006305205 0.008422475 0.0009000993 0.0005401211 0.002654765 -0.000805734 -0.001205834 0.00718457 0.001179881 0.00051575 0.007301534 0.001021373 0.000446412 0.008669587 0.00155363 0.0009297783 0.00860088 0.001730922 0.001016172 0.009525472 0.002724169 0.001686496 0.008483917 0.00188943 0.00108551 0.009084082 0.003715803 0.002161589 0.008326667 0.002018368 0.001133076 0.008139837 0.002108932 0.001155618 0.008516934 0.004661832 0.002594052 0.007936176 0.002154964 0.001151609 0.007831946 0.00554913 0.002977889 0.007038765 0.006365174 0.003307681 0.007729544 0.002153322 0.001121318 0.006148524 0.007098437 0.003578761 0.007534033 0.002104117 0.001066809 0.005173713 0.007738732 0.003787378 0.0007160981 0.00921229 0.003952438 0.007362975 0.002010704 0.0009918005 0.007228009 0.001879451 0.0009014011 0.007138352 0.001719294 0.0008017694 0.001928584 0.002300117 0.0003755602 0.007100099 0.00154116 0.0006997007 0.002369303 0.001869633 0.0002047587 0.002874651 -0.0002917219 -0.00089573 0.002956606 0.0002606456 -0.0005844463 0.007115863 0.001357173 0.0006021433 0.00289653 0.0008236707 -0.0002875905 0.002697433 0.001369118 -2.004986e-05 0.001883455 0.009019029 0.004013703 0.003026105 0.00870579 0.004006373 0.004127993 0.008277099 0.003930618 0.002532777 -0.006407858 -0.004261971 0.001912266 -0.00877345 9.909991e-05 0.002464072 -0.00623057 -0.00417558 0.001843561 -0.008596162 0.0001854912 0.002347106 -0.006072058 -0.00410624 0.001726595 -0.00843765 0.0002548312 0.002189852 -0.005943124 -0.004058677 0.001569341 -0.008308716 0.0003023943 0.002003026 -0.005852556 -0.004036132 0.001382515 -0.008218147 0.0003249396 0.00179936 -0.005806523 -0.004040141 0.001178849 -0.008172115 0.0003209305 0.001592733 -0.005808166 -0.004070431 0.0009722221 -0.008173758 0.0002906399 0.001397227 -0.00585737 -0.004124939 0.0007767157 -0.008222962 0.0002361325 0.001226164 -0.005950784 -0.004199949 0.0006056531 -0.008316376 0.0001611221 0.001091204 -0.00608204 -0.00429035 0.0004706927 -0.008447632 7.072151e-05 0.001001542 -0.006242194 -0.00438998 0.0003810305 -0.008607786 -2.890891e-05 0.0009632883 -0.006420333 -0.004492051 0.0003427773 -0.008785924 -0.00013098 0.0009790521 -0.006604315 -0.004589606 0.000358541 -0.008969906 -0.0002285351 0.001047757 -0.006781603 -0.004675998 0.000427246 -0.009147194 -0.0003149264 0.001164723 -0.006940115 -0.004745338 0.0005442117 -0.009305706 -0.0003842664 0.001321977 -0.007069048 -0.004792901 0.0007014656 -0.00943464 -0.0004318294 0.001508802 -0.007159617 -0.004815446 0.0008882912 -0.009525209 -0.0004543748 0.001712469 -0.007205649 -0.004811437 0.001091958 -0.009571241 -0.0004503657 0.001919096 -0.007204007 -0.004781146 0.001298585 -0.009569598 -0.000420075 0.002114602 -0.007154803 -0.004726639 0.001494091 -0.009520394 -0.0003655676 0.002285665 -0.007061389 -0.004651628 0.001665153 -0.00942698 -0.0002905573 0.002420625 -0.006930132 -0.004561228 0.001800114 -0.009295724 -0.0002001567 0.002510287 -0.006769978 -0.004461597 0.001889776 -0.00913557 -0.0001005263 0.00254854 -0.00659184 -0.004359526 0.001928029 -0.008957432 1.544864e-06 -0.0007308476 0.007550551 0.002845178 -0.001351359 0.00518496 0.007206249 -0.0007995618 0.007727878 0.002931589 -0.001420073 0.005362287 0.00729266 -0.0009165184 0.007886351 0.003000909 -0.001537029 0.00552076 0.00736198 -0.001073775 0.008015298 0.003048479 -0.001694286 0.005649706 0.00740955 -0.001260594 0.008105836 0.003071009 -0.001881105 0.005740245 0.00743208 -0.001464256 0.00815185 0.00306699 -0.002084767 0.005786258 0.007428061 -0.001670891 0.008150243 0.003036718 -0.002291402 0.005784652 0.007397789 -0.001866389 0.008101004 0.002982192 -0.0024869 0.005735412 0.007343263 -0.002037456 0.008007608 0.002907191 -0.002657967 0.005642016 0.007268262 -0.002172424 0.007876382 0.002816806 -0.002792935 0.00551079 0.007177877 -0.002262083 0.007716215 0.002717169 -0.002882594 0.005350623 0.00707824 -0.002300345 0.007538116 0.002615118 -0.002920856 0.005172524 0.006976189 -0.002284572 0.007354095 0.002517543 -0.002905083 0.004988503 0.006878614 -0.002215858 0.007176767 0.002431132 -0.002836369 0.004811176 0.006792203 -0.002098901 0.007018295 0.002361812 -0.002719413 0.004652703 0.006722883 -0.001941645 0.006889348 0.002314242 -0.002562156 0.004523756 0.006675313 -0.001754826 0.00679881 0.002291712 -0.002375337 0.004433218 0.006652783 -0.001551164 0.006752796 0.00229573 -0.002171675 0.004387204 0.006656802 -0.001344529 0.006754403 0.002326003 -0.00196504 0.004388811 0.006687074 -0.001149031 0.006803642 0.002380528 -0.001769542 0.004438051 0.0067416 -0.0009779639 0.006897038 0.002455529 -0.001598475 0.004531446 0.006816601 -0.0008429962 0.007028264 0.002545915 -0.001463507 0.004662672 0.006906986 -0.0007533372 0.007188431 0.002645552 -0.001373848 0.004822839 0.007006623 -0.0007150747 0.00736653 0.002747603 -0.001335586 0.005000938 0.007108674 0.008669587 0.00155363 0.0009297783 0.008049076 -0.0008119617 0.005290849 0.00860088 0.001730922 0.001016172 0.007980369 -0.0006346696 0.005377243 0.008483917 0.00188943 0.00108551 0.007863406 -0.0004761617 0.005446581 0.008326667 0.002018368 0.001133076 0.007706156 -0.0003472233 0.005494147 0.008139837 0.002108932 0.001155618 0.007519326 -0.0002566593 0.005516689 0.007936176 0.002154964 0.001151609 0.007315665 -0.0002106273 0.005512681 0.007729544 0.002153322 0.001121318 0.007109033 -0.0002122696 0.005482389 0.007534033 0.002104117 0.001066809 0.006913522 -0.0002614752 0.005427881 0.007362975 0.002010704 0.0009918005 0.006742464 -0.0003548877 0.005352872 0.007228009 0.001879451 0.0009014011 0.006607498 -0.0004861403 0.005262472 0.007138352 0.001719294 0.0008017694 0.006517841 -0.000646298 0.005162841 0.007100099 0.00154116 0.0006997007 0.006479588 -0.000824432 0.005060772 0.007115863 0.001357173 0.0006021433 0.006495352 -0.001008418 0.004963214 0.00718457 0.001179881 0.00051575 0.006564059 -0.001185711 0.004876821 0.007301534 0.001021373 0.000446412 0.006681023 -0.001344219 0.004807483 0.007458784 0.0008924349 0.0003988457 0.006838273 -0.001473157 0.004759917 0.007645613 0.0008018709 0.0003763036 0.007025102 -0.001563721 0.004737375 0.007849275 0.0007558389 0.0003803121 0.007228764 -0.001609753 0.004741383 0.008055906 0.0007574812 0.0004106033 0.007435395 -0.001608111 0.004771674 0.008251417 0.0008066868 0.0004651122 0.007630906 -0.001558905 0.004826183 0.008422475 0.0009000993 0.0005401211 0.007801964 -0.001465492 0.004901192 0.008557442 0.001031352 0.0006305205 0.007936931 -0.00133424 0.004991592 0.008647098 0.00119151 0.0007301521 0.008026587 -0.001174082 0.005091223 0.008685351 0.001369644 0.0008322208 0.00806484 -0.0009959481 0.005193292 0.00289653 0.0008236707 -0.0002875905 0.002276018 -0.001541921 0.004073481 0.002697433 0.001369118 -2.004986e-05 0.002076922 -0.0009964739 0.004341021 0.002369303 0.001869633 0.0002047587 0.001748792 -0.0004959587 0.00456583 0.001928584 0.002300117 0.0003755602 0.001308073 -6.547502e-05 0.004736631 0.00145312 0.002603442 0.0004724432 0.0008326084 0.0002378505 0.004833514 0.001397383 0.002638969 0.0004837837 0.000776872 0.0002733773 0.004844855 0.0008023264 0.002869294 0.0005240523 0.0001818153 0.0005037018 0.004885124 0.0001732768 0.002979363 0.0004942541 -0.0004472342 0.0006137716 0.004855325 -0.0004582507 0.002963822 0.0003959677 -0.001078762 0.0005982303 0.004757039 -0.001060569 0.002823353 0.0002340722 -0.00168108 0.0004577612 0.004595143 -0.0016035 0.002565095 1.673412e-05 -0.002224011 0.0001995034 0.004377805 -0.002059771 0.002201838 -0.0002452287 -0.002680282 -0.0001637535 0.004115842 -0.00240656 0.001751971 -0.0005385947 -0.003027071 -0.000613621 0.003822476 -0.002626446 0.001237959 -0.0008486984 -0.003246957 -0.001127633 0.003512373 -0.002708402 0.0006855911 -0.001159982 -0.003328913 -0.001680001 0.003201089 -0.002648325 0.000122566 -0.001456838 -0.003268836 -0.002243026 0.002904233 -0.002449229 -0.0004228811 -0.001724379 -0.00306974 -0.002788473 0.002636693 -0.002121098 -0.0009233964 -0.001949187 -0.002741609 -0.003288988 0.002411884 -0.001680379 -0.00135388 -0.002119989 -0.00230089 -0.003719472 0.002241083 -0.001624635 -0.001389442 -0.002131347 -0.002245146 -0.003755034 0.002229724 -0.001149173 -0.001692759 -0.002228225 -0.001769684 -0.00405835 0.002132846 -0.0005541281 -0.001923031 -0.002268467 -0.001174639 -0.004288622 0.002092604 7.493167e-05 -0.002033144 -0.002238691 -0.0005455794 -0.004398736 0.00212238 0.0007064552 -0.002017585 -0.002140396 8.594411e-05 -0.004383177 0.002220675 0.001308777 -0.001877134 -0.00197851 0.0006882663 -0.004242725 0.002382562 0.001851698 -0.001618832 -0.001761149 0.001231187 -0.003984424 0.002599922 0.002307981 -0.001255628 -0.001499213 0.00168747 -0.003621219 0.002861858 0.002344372 -0.001208416 -0.001468426 0.001723861 -0.003574008 0.002892645 0.002618373 -0.0008529456 -0.001236621 0.001997862 -0.003218537 0.00312445 0.002654765 -0.000805734 -0.001205834 0.002034254 -0.003171326 0.003155237 0.002874651 -0.0002917219 -0.00089573 0.002254139 -0.002657314 0.003465341 0.002956606 0.0002606456 -0.0005844463 0.002336095 -0.002104946 0.003776625 -0.006867658 -0.0004109366 -0.002346572 -0.007488169 -0.002776528 0.002014499 -0.006936365 -0.0002336445 -0.002260178 -0.007556876 -0.002599236 0.002100893 -0.007053329 -7.513655e-05 -0.00219084 -0.00767384 -0.002440728 0.002170231 -0.007210579 5.38018e-05 -0.002143274 -0.00783109 -0.00231179 0.002217797 -0.007397409 0.0001443658 -0.002120732 -0.00801792 -0.002221226 0.002240339 -0.00760107 0.0001903978 -0.002124741 -0.008221581 -0.002175194 0.002236331 -0.007807702 0.0001887555 -0.002155032 -0.008428213 -0.002176836 0.002206039 -0.008003213 0.0001395499 -0.002209541 -0.008623724 -0.002226042 0.002151531 -0.008174271 4.613743e-05 -0.00228455 -0.008794782 -0.002319454 0.002076522 -0.008309237 -8.511517e-05 -0.002374949 -0.008929748 -0.002450707 0.001986122 -0.008398893 -0.0002452729 -0.002474581 -0.009019405 -0.002610865 0.001886491 -0.008437147 -0.0004234069 -0.002576649 -0.009057658 -0.002788999 0.001784422 -0.008421383 -0.0006073933 -0.002674207 -0.009041894 -0.002972985 0.001686864 -0.008352676 -0.0007846854 -0.0027606 -0.008973187 -0.003150277 0.001600471 -0.008235712 -0.0009431934 -0.002829938 -0.008856223 -0.003308785 0.001531133 -0.008078462 -0.001072132 -0.002877504 -0.008698973 -0.003437723 0.001483567 -0.007891633 -0.001162696 -0.002900046 -0.008512144 -0.003528287 0.001461025 -0.007687971 -0.001208728 -0.002896038 -0.008308482 -0.003574319 0.001465033 -0.00748134 -0.001207085 -0.002865747 -0.008101851 -0.003572677 0.001495324 -0.007285829 -0.00115788 -0.002811238 -0.00790634 -0.003523472 0.001549833 -0.007114771 -0.001064467 -0.002736229 -0.007735282 -0.003430059 0.001624842 -0.006979804 -0.0009332148 -0.00264583 -0.007600315 -0.003298807 0.001715242 -0.006890148 -0.000773057 -0.002546198 -0.007510659 -0.003138649 0.001814873 -0.006851895 -0.000594923 -0.002444129 -0.007472406 -0.002960515 0.001916942 -0.002247514 0.006864079 0.007989551 -0.003390394 0.006688044 0.00773145 -0.0024869 0.005735412 0.007343263 -0.002291402 0.005784652 0.007397789 -0.002084767 0.005786258 0.007428061 -0.001080051 0.006917206 0.008184481 -0.001881105 0.005740245 0.00743208 -0.0007240995 0.006895837 0.008223536 -0.001694286 0.005649706 0.00740955 -0.001537029 0.00552076 0.00736198 -0.00230089 -0.003719472 0.002241083 -0.007472406 -0.002960515 0.001916942 -0.002245146 -0.003755034 0.002229724 -0.007510659 -0.003138649 0.001814873 -0.007600315 -0.003298807 0.001715242 -0.007735282 -0.003430059 0.001624842 -0.00790634 -0.003523472 0.001549833 -0.009667541 -0.004693539 0.0006645585 -0.008101851 -0.003572677 0.001495324 -0.008308482 -0.003574319 0.001465033 -0.001420073 0.005362287 0.00729266 -0.001351359 0.00518496 0.007206249 0.0008326084 0.0002378505 0.004833514 -0.001335586 0.005000938 0.007108674 -0.001373848 0.004822839 0.007006623 -0.002741609 -0.003288988 0.002411884 -0.00306974 -0.002788473 0.002636693 -0.007488169 -0.002776528 0.002014499 -0.003268836 -0.002243026 0.002904233 -0.007556876 -0.002599236 0.002100893 -0.001463507 0.004662672 0.006906986 -0.001598475 0.004531446 0.006816601 0.000776872 0.0002733773 0.004844855 -0.001769542 0.004438051 0.0067416 0.0001818153 0.0005037018 0.004885124 -0.008512144 -0.003528287 0.001461025 -0.008698973 -0.003437723 0.001483567 -0.009693244 -0.004644155 0.0006876889 -0.008856223 -0.003308785 0.001531133 -0.0100693 -0.00363499 0.001181587 -0.008973187 -0.003150277 0.001600471 -0.01020719 -0.003120328 0.001441138 -0.009041894 -0.002972985 0.001686864 -0.01031097 -0.002601353 0.001707881 -0.009057658 -0.002788999 0.001784422 -0.01041487 -0.001557776 0.002259168 -0.002680282 -0.0001637535 0.004115842 -0.002171675 0.004387204 0.006656802 -0.003027071 -0.000613621 0.003822476 -0.002375337 0.004433218 0.006652783 -0.003246957 -0.001127633 0.003512373 -0.003328913 -0.001680001 0.003201089 -0.00767384 -0.002440728 0.002170231 -0.00783109 -0.00231179 0.002217797 -0.002562156 0.004523756 0.006675313 -0.00801792 -0.002221226 0.002240339 -0.002719413 0.004652703 0.006722883 -0.008221581 -0.002175194 0.002236331 -0.007405071 0.004829089 0.006151866 -0.002224011 0.0001995034 0.004377805 -0.00168108 0.0004577612 0.004595143 -0.00196504 0.004388811 0.006687074 -0.001078762 0.0005982303 0.004757039 -0.0004472342 0.0006137716 0.004855325 -0.009019405 -0.002610865 0.001886491 -0.008929748 -0.002450707 0.001986122 -0.01037954 -0.0005188612 0.002827738 -0.008794782 -0.002319454 0.002076522 -0.01020546 0.000500682 0.003405542 -0.008623724 -0.002226042 0.002151531 -0.009895098 0.001486709 0.003984555 -0.008428213 -0.002176836 0.002206039 -0.008198972 0.004108235 0.005647891 -0.008884759 0.003303239 0.005113657 -0.00945279 0.002425289 0.004556606 -0.002836369 0.004811176 0.006792203 -0.002905083 0.004988503 0.006878614 -0.006514175 0.005455502 0.006618414 -0.002920856 0.005172524 0.006976189 -0.005538811 0.005978794 0.007041044 -0.002882594 0.005350623 0.00707824 -0.004492658 0.006391578 0.007413802 -0.002792935 0.00551079 0.007177877 -0.002657967 0.005642016 0.007268262 0.00921437 -0.0006646193 0.005536576 0.008049076 -0.0008119617 0.005290849 0.00806484 -0.0009959481 0.005193292 0.009387459 -0.001705052 0.004996838 0.008026587 -0.001174082 0.005091223 0.009406448 -0.002281778 0.004686704 0.007936931 -0.00133424 0.004991592 0.007801964 -0.001465492 0.004901192 0.007630906 -0.001558905 0.004826183 0.007435395 -0.001608111 0.004771674 0.001997862 -0.003218537 0.00312445 0.007228764 -0.001609753 0.004741383 0.007025102 -0.001563721 0.004737375 0.006838273 -0.001473157 0.004759917 0.006681023 -0.001344219 0.004807483 0.002034254 -0.003171326 0.003155237 0.006564059 -0.001185711 0.004876821 0.002254139 -0.002657314 0.003465341 0.001308073 -6.547502e-05 0.004736631 0.001748792 -0.0004959587 0.00456583 0.006479588 -0.000824432 0.005060772 0.002076922 -0.0009964739 0.004341021 0.006495352 -0.001008418 0.004963214 0.002276018 -0.001541921 0.004073481 0.002336095 -0.002104946 0.003776625 0.007315665 -0.0002106273 0.005512681 0.007519326 -0.0002566593 0.005516689 0.008463571 0.001350211 0.006522661 0.007706156 -0.0003472233 0.005494147 0.008904961 0.0003585768 0.006047568 0.007863406 -0.0004761617 0.005446581 0.007980369 -0.0006346696 0.005377243 0.006517841 -0.000646298 0.005162841 0.006607498 -0.0004861403 0.005262472 9.558708e-05 0.006846698 0.008313509 0.006742464 -0.0003548877 0.005352872 0.001262944 0.006653437 0.008374774 0.005528013 0.004732845 0.007939832 0.006913522 -0.0002614752 0.005427881 0.006418254 0.003999582 0.007668753 0.007109033 -0.0002122696 0.005482389 0.007211435 0.003183538 0.00733896 0.007896423 0.00229624 0.006955123 0.004553202 0.00537314 0.00814845 0.003507482 0.005911507 0.008291689 0.002405594 0.006340198 0.008367444 0.008697278 -0.005747723 0.002705755 0.009074269 -0.004783738 0.003282293 0.00931692 -0.003779175 0.003861727 0.009421804 -0.002748118 0.004435931 0.003280573 -0.01023201 -0.0004973849 0.004030857 -0.009984317 -0.0002562734 0.001723861 -0.003574008 0.002892645 0.005043404 -0.00951546 0.0001421195 0.005978171 -0.008939592 0.0005874926 0.006822054 -0.008264801 0.001073593 0.007563208 -0.007500555 0.0015936 0.008191216 -0.006657583 0.002140212 0.001569341 -0.008308716 0.0003023943 0.001726595 -0.00843765 0.0002548312 0.001843561 -0.008596162 0.0001854912 0.001912266 -0.00877345 9.909991e-05 0.001928029 -0.008957432 1.544864e-06 0.001889776 -0.00913557 -0.0001005263 0.001800114 -0.009295724 -0.0002001567 0.002954768 -0.01033958 -0.0006020877 0.001665153 -0.00942698 -0.0002905573 0.001830223 -0.01057626 -0.0008904805 0.001494091 -0.009520394 -0.0003655676 0.001298585 -0.009569598 -0.000420075 0.0006730219 -0.01069105 -0.001117394 -0.008560913 -0.006532987 -0.0001757642 -0.007820533 -0.007386137 -0.0005331975 0.0003810305 -0.008607786 -2.890891e-05 0.0003427773 -0.008785924 -0.00013098 -0.001174639 -0.004288622 0.002092604 -0.001769684 -0.00405835 0.002132846 0.0007767157 -0.008222962 0.0002361325 0.0006056531 -0.008316376 0.0001611221 0.0004706927 -0.008447632 7.072151e-05 -0.00918808 -0.005614701 0.0002331088 0.001091958 -0.009571241 -0.0004503657 0.0008882912 -0.009525209 -0.0004543748 -0.0005006009 -0.01068231 -0.001279645 0.0007014656 -0.00943464 -0.0004318294 -0.001674157 -0.0105502 -0.001374958 0.0005442117 -0.009305706 -0.0003842664 -0.002831179 -0.01029655 -0.001401995 0.000427246 -0.009147194 -0.0003149264 -0.003955429 -0.009924915 -0.001360373 0.000358541 -0.008969906 -0.0002285351 -0.006977331 -0.008162165 -0.0008341668 -0.00604316 -0.008850182 -0.001074453 -0.005031128 -0.009440529 -0.001250681 0.00168747 -0.003621219 0.002861858 0.001178849 -0.008172115 0.0003209305 0.001382515 -0.008218147 0.0003249396 0.001231187 -0.003984424 0.002599922 0.0006882663 -0.004242725 0.002382562 0.0009722221 -0.008173758 0.0002906399 8.594411e-05 -0.004383177 0.002220675 -0.0005455794 -0.004398736 0.00212238 0.01004231 -0.000382526 7.485936e-05 0.01002696 8.381376e-05 0.0003256329 0.009406448 -0.002281778 0.004686704 0.009387459 -0.001705052 0.004996838 0.009421804 -0.002748118 0.004435931 0.00931692 -0.003779175 0.003861727 0.009937431 -0.001413583 -0.0004993439 0.009074269 -0.004783738 0.003282293 0.00969478 -0.002418147 -0.001078778 0.008697278 -0.005747723 0.002705755 0.009317789 -0.003382132 -0.001655316 0.008191216 -0.006657583 0.002140212 0.008811727 -0.004291992 -0.002220859 0.007563208 -0.007500555 0.0015936 0.008183719 -0.005134963 -0.002767471 0.006822054 -0.008264801 0.001073593 0.007442565 -0.005899209 -0.003287478 0.005978171 -0.008939592 0.0005874926 0.006598682 -0.006574 -0.003773579 0.005043404 -0.00951546 0.0001421195 0.005663915 -0.007149869 -0.004218952 0.004030857 -0.009984317 -0.0002562734 0.004651368 -0.007618725 -0.004617345 0.003901085 -0.00786642 -0.004858456 0.003280573 -0.01023201 -0.0004973849 0.003575279 -0.007973983 -0.004963159 0.002954768 -0.01033958 -0.0006020877 0.001830223 -0.01057626 -0.0008904805 0.002450734 -0.008210672 -0.005251552 0.0006730219 -0.01069105 -0.001117394 0.001293533 -0.008325456 -0.005478466 -0.0005006009 -0.01068231 -0.001279645 0.0001199102 -0.008316722 -0.005640716 -0.001674157 -0.0105502 -0.001374958 -0.001053646 -0.008184604 -0.005736029 -0.002831179 -0.01029655 -0.001401995 -0.002210668 -0.007930954 -0.005763066 -0.003955429 -0.009924915 -0.001360373 -0.003334918 -0.007559323 -0.005721444 -0.005031128 -0.009440529 -0.001250681 -0.004410616 -0.007074937 -0.005611752 -0.00604316 -0.008850182 -0.001074453 -0.005422649 -0.006484591 -0.005435524 -0.006977331 -0.008162165 -0.0008341668 -0.00635682 -0.005796573 -0.005195238 -0.007820533 -0.007386137 -0.0005331975 -0.007200022 -0.005020545 -0.004894269 -0.008560913 -0.006532987 -0.0001757642 -0.007940402 -0.004167395 -0.004536835 -0.00918808 -0.005614701 0.0002331088 -0.008567569 -0.00324911 -0.004127962 -0.00904703 -0.002327947 -0.003696513 -0.009667541 -0.004693539 0.0006645585 -0.009072733 -0.002278563 -0.003673382 -0.009693244 -0.004644155 0.0006876889 -0.0100693 -0.00363499 0.001181587 -0.009448787 -0.001269399 -0.003179484 -0.009586676 -0.0007547358 -0.002919933 -0.01020719 -0.003120328 0.001441138 -0.009690462 -0.0002357609 -0.002653191 -0.01031097 -0.002601353 0.001707881 -0.01041487 -0.001557776 0.002259168 -0.009794361 0.0008078156 -0.002101903 -0.01037954 -0.0005188612 0.002827738 -0.00975903 0.001846731 -0.001533333 -0.01020546 0.000500682 0.003405542 -0.009584948 0.002866274 -0.0009555297 -0.009895098 0.001486709 0.003984555 -0.009274587 0.003852301 -0.0003765161 -0.00945279 0.002425289 0.004556606 -0.008832279 0.00479088 0.0001955346 -0.008884759 0.003303239 0.005113657 -0.008264248 0.005668831 0.0007525861 -0.008198972 0.004108235 0.005647891 -0.007578461 0.006473827 0.00128682 -0.007405071 0.004829089 0.006151866 -0.00678456 0.007194681 0.001790795 -0.006514175 0.005455502 0.006618414 -0.005893664 0.007821094 0.002257342 -0.005538811 0.005978794 0.007041044 -0.0049183 0.008344386 0.002679973 -0.004492658 0.006391578 0.007413802 -0.003872147 0.008757169 0.003052731 -0.003390394 0.006688044 0.00773145 -0.002769883 0.009053636 0.003370379 -0.002247514 0.006864079 0.007989551 -0.001627003 0.009229671 0.00362848 -0.001080051 0.006917206 0.008184481 -0.0004595398 0.009282798 0.003823409 -0.0001035885 0.009261429 0.003862464 -0.0007240995 0.006895837 0.008223536 0.0007160981 0.00921229 0.003952438 0.01000797 0.0006605399 0.0006357667 0.009834881 0.001700972 0.001175505 0.00921437 -0.0006646193 0.005536576 0.009525472 0.002724169 0.001686496 0.008904961 0.0003585768 0.006047568 0.009084082 0.003715803 0.002161589 0.008463571 0.001350211 0.006522661 0.008516934 0.004661832 0.002594052 0.007896423 0.00229624 0.006955123 0.007831946 0.00554913 0.002977889 0.007211435 0.003183538 0.00733896 0.007038765 0.006365174 0.003307681 0.006418254 0.003999582 0.007668753 0.006148524 0.007098437 0.003578761 0.005528013 0.004732845 0.007939832 0.005173713 0.007738732 0.003787378 0.004553202 0.00537314 0.00814845 0.004127993 0.008277099 0.003930618 0.003507482 0.005911507 0.008291689 0.003026105 0.00870579 0.004006373 0.002405594 0.006340198 0.008367444 0.001883455 0.009019029 0.004013703 0.001262944 0.006653437 0.008374774 9.558708e-05 0.006846698 0.008313509</float_array>
          <technique_common>
            <accessor count="744" source="#verts-array-array" stride="3">
              <param type="float" name="X"/>
              <param type="float" name="Y"/>
              <param type="float" name="Z"/>
            </accessor>
          </technique_common>
        </source>
        <source id="normals-array">
          <float_array count="2232" id="normals-array-array">0.1241022 0.4731183 -0.8722142 0.1241022 0.4731183 -0.8722142 0.1241022 0.4731183 -0.8722142 0.1241022 0.4731183 -0.8722142 0.1241022 0.4731183 -0.8722142 0.1241022 0.4731183 -0.8722142 0.1241022 0.4731183 -0.8722142 0.1241022 0.4731183 -0.8722142 0.1241022 0.4731183 -0.8722142 0.1241022 0.4731183 -0.8722142 0.1241022 0.4731183 -0.8722142 0.1241022 0.4731183 -0.8722142 0.1241022 0.4731183 -0.8722142 0.1241022 0.4731183 -0.8722142 0.1241022 0.4731183 -0.8722142 0.1241022 0.4731183 -0.8722142 0.1241022 0.4731183 -0.8722142 0.1241022 0.4731183 -0.8722142 0.1241022 0.4731183 -0.8722142 0.1241022 0.4731183 -0.8722142 0.1241022 0.4731183 -0.8722142 0.1241022 0.4731183 -0.8722142 0.1241022 0.4731183 -0.8722142 0.1241022 0.4731183 -0.8722142 0.1241022 0.4731183 -0.8722142 0.1241022 0.4731183 -0.8722142 0.1241022 0.4731183 -0.8722142 0.1241022 0.4731183 -0.8722142 0.1241022 0.4731183 -0.8722142 0.1241022 0.4731183 -0.8722142 0.1241022 0.4731183 -0.8722142 0.1241022 0.4731183 -0.8722142 0.1241022 0.4731183 -0.8722142 0.1241022 0.4731183 -0.8722142 0.1241022 0.4731183 -0.8722142 0.1241022 0.4731183 -0.8722142 0.1241022 0.4731183 -0.8722142 0.1241022 0.4731183 -0.8722142 0.1241022 0.4731183 -0.8722142 0.1241022 0.4731183 -0.8722142 0.1241022 0.4731183 -0.8722142 0.1241022 0.4731183 -0.8722142 0.1241022 0.4731183 -0.8722142 0.1241022 0.4731183 -0.8722142 0.1241022 0.4731183 -0.8722142 0.1241022 0.4731183 -0.8722142 0.1241022 0.4731183 -0.8722142 0.1241022 0.4731183 -0.8722142 0.1241022 0.4731183 -0.8722142 0.1241022 0.4731183 -0.8722142 0.1241022 0.4731183 -0.8722142 0.1241022 0.4731183 -0.8722142 0.1241022 0.4731183 -0.8722142 0.1241022 0.4731183 -0.8722142 0.1241022 0.4731183 -0.8722142 0.1241022 0.4731183 -0.8722142 0.1241022 0.4731183 -0.8722142 0.1241022 0.4731183 -0.8722142 0.1241022 0.4731183 -0.8722142 0.1241022 0.4731183 -0.8722142 0.1241022 0.4731183 -0.8722142 0.1241022 0.4731183 -0.8722142 0.1241022 0.4731183 -0.8722142 0.1241022 0.4731183 -0.8722142 0.1241022 0.4731183 -0.8722142 0.1241022 0.4731183 -0.8722142 0.1241022 0.4731183 -0.8722142 0.1241022 0.4731183 -0.8722142 0.1241022 0.4731183 -0.8722142 0.1241022 0.4731183 -0.8722142 0.1241022 0.4731183 -0.8722142 0.1241022 0.4731183 -0.8722142 0.1241022 0.4731183 -0.8722142 0.1241022 0.4731183 -0.8722142 0.1241022 0.4731183 -0.8722142 0.1241022 0.4731183 -0.8722142 0.1241022 0.4731183 -0.8722142 0.1241022 0.4731183 -0.8722142 0.1241022 0.4731183 -0.8722142 0.1241022 0.4731183 -0.8722142 0.1241022 0.4731183 -0.8722142 0.1241022 0.4731183 -0.8722142 0.1241022 0.4731183 -0.8722142 0.1241022 0.4731183 -0.8722142 0.1241022 0.4731183 -0.8722142 0.1241022 0.4731183 -0.8722142 0.1241022 0.4731183 -0.8722142 0.1241022 0.4731183 -0.8722142 0.1241022 0.4731183 -0.8722142 0.1241022 0.4731183 -0.8722142 0.1241022 0.4731183 -0.8722142 0.1241022 0.4731183 -0.8722142 0.1241022 0.4731183 -0.8722142 0.1241022 0.4731183 -0.8722142 0.1241022 0.4731183 -0.8722142 0.1241022 0.4731183 -0.8722142 0.1241022 0.4731183 -0.8722142 0.1241022 0.4731183 -0.8722142 0.1241022 0.4731183 -0.8722142 0.1241022 0.4731183 -0.8722142 0.1241022 0.4731183 -0.8722142 0.1241022 0.4731183 -0.8722142 0.1241022 0.4731183 -0.8722142 0.1241022 0.4731183 -0.8722142 0.1241022 0.4731183 -0.8722142 0.1241022 0.4731183 -0.8722142 0.1241022 0.4731183 -0.8722142 0.1241022 0.4731183 -0.8722142 0.1241022 0.4731183 -0.8722142 0.1241022 0.4731183 -0.8722142 0.1241022 0.4731183 -0.8722142 0.1241022 0.4731183 -0.8722142 0.1241022 0.4731183 -0.8722142 0.1241022 0.4731183 -0.8722142 0.1241022 0.4731183 -0.8722142 0.1241022 0.4731183 -0.8722142 0.1241022 0.4731183 -0.8722142 0.1241022 0.4731183 -0.8722142 0.1241022 0.4731183 -0.8722142 0.1241022 0.4731183 -0.8722142 0.1241022 0.4731183 -0.8722142 0.1241022 0.4731183 -0.8722142 0.1241022 0.4731183 -0.8722142 0.1241022 0.4731183 -0.8722142 0.1241022 0.4731183 -0.8722142 0.1241022 0.4731183 -0.8722142 0.1241022 0.4731183 -0.8722142 0.1241022 0.4731183 -0.8722142 0.1241022 0.4731183 -0.8722142 0.1241022 0.4731183 -0.8722142 0.1241022 0.4731183 -0.8722142 0.1241022 0.4731183 -0.8722142 0.1241022 0.4731183 -0.8722142 0.1241022 0.4731183 -0.8722142 0.1241022 0.4731183 -0.8722142 0.1241022 0.4731183 -0.8722142 0.1241022 0.4731183 -0.8722142 0.1241022 0.4731183 -0.8722142 0.1241022 0.4731183 -0.8722142 0.1241022 0.4731183 -0.8722142 0.1241022 0.4731183 -0.8722142 0.1241022 0.4731183 -0.8722142 0.1241022 0.4731183 -0.8722142 0.1241022 0.4731183 -0.8722142 0.1241022 0.4731183 -0.8722142 0.1241022 0.4731183 -0.8722142 0.1241022 0.4731183 -0.8722142 0.1241022 0.4731183 -0.8722142 0.1241022 0.4731183 -0.8722142 0.1241022 0.4731183 -0.8722142 0.1241022 0.4731183 -0.8722142 0.1241022 0.4731183 -0.8722142 0.1241022 0.4731183 -0.8722142 0.1241022 0.4731183 -0.8722142 0.1241022 0.4731183 -0.8722142 0.1241022 0.4731183 -0.8722142 0.1241022 0.4731183 -0.8722142 0.1241022 0.4731183 -0.8722142 0.1241022 0.4731183 -0.8722142 0.1241022 0.4731183 -0.8722142 0.1241022 0.4731183 -0.8722142 0.1241022 0.4731183 -0.8722142 0.1241022 0.4731183 -0.8722142 0.1241022 0.4731183 -0.8722142 0.1241022 0.4731183 -0.8722142 0.1241022 0.4731183 -0.8722142 0.1241022 0.4731183 -0.8722142 0.1241022 0.4731183 -0.8722142 0.1241022 0.4731183 -0.8722142 0.1241022 0.4731183 -0.8722142 0.1241022 0.4731183 -0.8722142 0.1241022 0.4731183 -0.8722142 0.1241022 0.4731183 -0.8722142 0.1241022 0.4731183 -0.8722142 0.1241022 0.4731183 -0.8722142 0.1241022 0.4731183 -0.8722142 0.1241022 0.4731183 -0.8722142 0.1241022 0.4731183 -0.8722142 0.1241022 0.4731183 -0.8722142 0.1241022 0.4731183 -0.8722142 0.1241022 0.4731183 -0.8722142 0.1241022 0.4731183 -0.8722142 0.1241022 0.4731183 -0.8722142 0.1241022 0.4731183 -0.8722142 0.1241022 0.4731183 -0.8722142 0.1241022 0.4731183 -0.8722142 -0.9710779 -0.1227854 -0.2047719 -0.9710779 -0.1227854 -0.2047719 -0.885196 -0.3443959 -0.3127612 -0.885196 -0.3443959 -0.3127612 -0.7389885 -0.542537 -0.3994366 -0.7389885 -0.542537 -0.3994366 -0.5424226 -0.7037028 -0.4588902 -0.5424226 -0.7037028 -0.4588902 -0.308892 -0.8169131 -0.4870716 -0.308892 -0.8169131 -0.4870716 -0.05430777 -0.8744534 -0.4820601 -0.05430777 -0.8744534 -0.4820601 0.2039765 -0.8724006 -0.4441968 0.2039765 -0.8724006 -0.4441968 0.4483601 -0.8108949 -0.3760622 0.4483601 -0.8108949 -0.3760622 0.6621893 -0.6941272 -0.282299 0.6621893 -0.6941272 -0.282299 0.8308889 -0.530058 -0.169299 0.8308889 -0.530058 -0.169299 0.9429657 -0.3298667 -0.04476177 0.9429657 -0.3298667 -0.04476177 0.9907822 -0.1071927 0.0828276 0.9907822 -0.1071927 0.0828276 0.9710779 0.1227854 0.2047719 0.9710779 0.1227854 0.2047719 0.885196 0.3443959 0.3127612 0.885196 0.3443959 0.3127612 0.7389885 0.542537 0.3994366 0.7389885 0.542537 0.3994366 0.5424226 0.7037028 0.4588902 0.5424226 0.7037028 0.4588902 0.308892 0.8169131 0.4870716 0.308892 0.8169131 0.4870716 0.05430777 0.8744534 0.4820601 0.05430777 0.8744534 0.4820601 -0.2039765 0.8724006 0.4441968 -0.2039765 0.8724006 0.4441968 -0.4483601 0.8108949 0.3760622 -0.4483601 0.8108949 0.3760622 -0.6621893 0.6941272 0.282299 -0.6621893 0.6941272 0.282299 -0.8308889 0.530058 0.169299 -0.8308889 0.530058 0.169299 -0.9429657 0.3298667 0.04476177 -0.9429657 0.3298667 0.04476177 -0.9907822 0.1071927 -0.0828276 -0.9907822 0.1071927 -0.0828276 -0.9710779 -0.1227854 -0.2047719 -0.9710779 -0.1227854 -0.2047719 -0.8851838 -0.3444179 -0.3127715 -0.8851838 -0.3444179 -0.3127715 -0.7389756 -0.5425505 -0.3994421 -0.7389756 -0.5425505 -0.3994421 -0.5423855 -0.7037264 -0.4588977 -0.5423855 -0.7037264 -0.4588977 -0.3087855 -0.8169503 -0.4870766 -0.3087855 -0.8169503 -0.4870766 -0.05435817 -0.8744479 -0.4820643 -0.05435817 -0.8744479 -0.4820643 0.2039765 -0.8724006 -0.4441968 0.2039765 -0.8724006 -0.4441968 0.4484051 -0.8108773 -0.3760462 0.4484051 -0.8108773 -0.3760462 0.6621058 -0.6941885 -0.2823441 0.6621058 -0.6941885 -0.2823441 0.8308647 -0.5300894 -0.1693195 0.8308647 -0.5300894 -0.1693195 0.9429597 -0.3298825 -0.0447712 0.9429597 -0.3298825 -0.0447712 0.9907807 -0.1072165 0.0828145 0.9907807 -0.1072165 0.0828145 0.9710779 0.1227854 0.2047719 0.9710779 0.1227854 0.2047719 0.8851838 0.3444179 0.3127715 0.8851838 0.3444179 0.3127715 0.7389756 0.5425505 0.3994421 0.7389756 0.5425505 0.3994421 0.5423855 0.7037264 0.4588977 0.5423855 0.7037264 0.4588977 0.3087855 0.8169503 0.4870766 0.3087855 0.8169503 0.4870766 0.05435817 0.8744479 0.4820643 0.05435817 0.8744479 0.4820643 -0.2039765 0.8724006 0.4441968 -0.2039765 0.8724006 0.4441968 -0.4484051 0.8108773 0.3760462 -0.4484051 0.8108773 0.3760462 -0.6621058 0.6941885 0.2823441 -0.6621058 0.6941885 0.2823441 -0.8308647 0.5300894 0.1693195 -0.8308647 0.5300894 0.1693195 -0.9429597 0.3298825 0.0447712 -0.9429597 0.3298825 0.0447712 -0.9907807 0.1072165 -0.0828145 -0.9907807 0.1072165 -0.0828145 -0.9710779 -0.1227854 -0.2047719 -0.9710779 -0.1227854 -0.2047719 -0.8851945 -0.3443985 -0.3127624 -0.8851945 -0.3443985 -0.3127624 -0.738998 -0.542527 -0.3994326 -0.738998 -0.542527 -0.3994326 -0.5424226 -0.7037028 -0.4588902 -0.5424226 -0.7037028 -0.4588902 -0.3088784 -0.8169178 -0.4870722 -0.3088784 -0.8169178 -0.4870722 -0.05431092 -0.8744531 -0.4820603 -0.05431092 -0.8744531 -0.4820603 0.2039765 -0.8724006 -0.4441968 0.2039765 -0.8724006 -0.4441968 0.4483629 -0.8108938 -0.3760612 0.4483629 -0.8108938 -0.3760612 0.6621786 -0.6941351 -0.2823047 0.6621786 -0.6941351 -0.2823047 0.8308889 -0.530058 -0.169299 0.8308889 -0.530058 -0.169299 0.9429702 -0.3298549 -0.04475474 0.9429702 -0.3298549 -0.04475474 0.990782 -0.1071955 0.08282606 0.990782 -0.1071955 0.08282606 0.9710779 0.1227854 0.2047719 0.9710779 0.1227854 0.2047719 0.8851945 0.3443985 0.3127624 0.8851945 0.3443985 0.3127624 0.738998 0.542527 0.3994326 0.738998 0.542527 0.3994326 0.5424226 0.7037028 0.4588902 0.5424226 0.7037028 0.4588902 0.3088784 0.8169178 0.4870722 0.3088784 0.8169178 0.4870722 0.05431092 0.8744531 0.4820603 0.05431092 0.8744531 0.4820603 -0.2039765 0.8724006 0.4441968 -0.2039765 0.8724006 0.4441968 -0.4483629 0.8108938 0.3760612 -0.4483629 0.8108938 0.3760612 -0.6621786 0.6941351 0.2823047 -0.6621786 0.6941351 0.2823047 -0.8308889 0.530058 0.169299 -0.8308889 0.530058 0.169299 -0.9429702 0.3298549 0.04475474 -0.9429702 0.3298549 0.04475474 -0.990782 0.1071955 -0.08282606 -0.990782 0.1071955 -0.08282606 -0.9710779 -0.1227854 -0.2047719 -0.9710779 -0.1227854 -0.2047719 -0.9013431 -0.3138319 -0.2984798 -0.9013431 -0.3138319 -0.2984798 -0.7864076 -0.4891477 -0.3772235 -0.7864076 -0.4891477 -0.3772235 -0.6320436 -0.6399291 -0.4370488 -0.6320436 -0.6399291 -0.4370488 -0.5422525 -0.7038113 -0.4589248 -0.5422525 -0.7038113 -0.4589248 -0.4458337 -0.7587005 -0.4749798 -0.4458337 -0.7587005 -0.4749798 -0.2375623 -0.8392793 -0.4890547 -0.2375623 -0.8392793 -0.4890547 -0.01719814 -0.8778518 -0.4786234 -0.01719814 -0.8778518 -0.4786234 0.2039765 -0.8724006 -0.4441968 0.2039765 -0.8724006 -0.4441968 0.4149252 -0.8232131 -0.3875012 0.4149252 -0.8232131 -0.3875012 0.6051146 -0.7327292 -0.3113588 0.6051146 -0.7327292 -0.3113588 0.7649496 -0.6054974 -0.219602 0.7649496 -0.6054974 -0.219602 0.8863873 -0.447951 -0.1168649 0.8863873 -0.447951 -0.1168649 0.9634125 -0.2678963 -0.00823766 0.9634125 -0.2678963 -0.00823766 0.99212 -0.07441789 0.1007961 0.99212 -0.07441789 0.1007961 0.9710779 0.1227854 0.2047719 0.9710779 0.1227854 0.2047719 0.9013431 0.3138319 0.2984798 0.9013431 0.3138319 0.2984798 0.7864076 0.4891477 0.3772235 0.7864076 0.4891477 0.3772235 0.6320389 0.6399328 0.4370502 0.6320389 0.6399328 0.4370502 0.5424226 0.7037028 0.4588902 0.5424226 0.7037028 0.4588902 0.4459855 0.7586239 0.4749598 0.4459855 0.7586239 0.4749598 0.2375596 0.83928 0.4890547 0.2375596 0.83928 0.4890547 0.01721934 0.8778503 0.4786256 0.01721934 0.8778503 0.4786256 -0.2039765 0.8724006 0.4441968 -0.2039765 0.8724006 0.4441968 -0.4149445 0.8232064 0.3874949 -0.4149445 0.8232064 0.3874949 -0.6051123 0.7327306 0.3113599 -0.6051123 0.7327306 0.3113599 -0.764935 0.6055122 0.2196121 -0.764935 0.6055122 0.2196121 -0.8308889 0.530058 0.169299 -0.8308889 0.530058 0.169299 -0.8308889 0.530058 0.169299 -0.8308889 0.530058 0.169299 -0.8863947 0.4479384 0.116857 -0.8863947 0.4479384 0.116857 -0.9634125 0.2678963 0.00823766 -0.9634125 0.2678963 0.00823766 -0.99212 0.07441789 -0.1007961 -0.99212 0.07441789 -0.1007961 -0.9710779 -0.1227854 -0.2047719 -0.9710779 -0.1227854 -0.2047719 -0.8851945 -0.3443985 -0.3127624 -0.8851945 -0.3443985 -0.3127624 -0.738998 -0.542527 -0.3994326 -0.738998 -0.542527 -0.3994326 -0.5424226 -0.7037028 -0.4588902 -0.5424226 -0.7037028 -0.4588902 -0.3088784 -0.8169178 -0.4870722 -0.3088784 -0.8169178 -0.4870722 -0.05431092 -0.8744531 -0.4820603 -0.05431092 -0.8744531 -0.4820603 0.2039765 -0.8724006 -0.4441968 0.2039765 -0.8724006 -0.4441968 0.4483629 -0.8108938 -0.3760612 0.4483629 -0.8108938 -0.3760612 0.6621786 -0.6941351 -0.2823047 0.6621786 -0.6941351 -0.2823047 0.8308889 -0.530058 -0.169299 0.8308889 -0.530058 -0.169299 0.9429702 -0.3298549 -0.04475474 0.9429702 -0.3298549 -0.04475474 0.990782 -0.1071955 0.08282606 0.990782 -0.1071955 0.08282606 0.9710779 0.1227854 0.2047719 0.9710779 0.1227854 0.2047719 0.8851945 0.3443985 0.3127624 0.8851945 0.3443985 0.3127624 0.738998 0.542527 0.3994326 0.738998 0.542527 0.3994326 0.5424226 0.7037028 0.4588902 0.5424226 0.7037028 0.4588902 0.3088784 0.8169178 0.4870722 0.3088784 0.8169178 0.4870722 0.05431092 0.8744531 0.4820603 0.05431092 0.8744531 0.4820603 -0.2039765 0.8724006 0.4441968 -0.2039765 0.8724006 0.4441968 -0.4483629 0.8108938 0.3760612 -0.4483629 0.8108938 0.3760612 -0.6621786 0.6941351 0.2823047 -0.6621786 0.6941351 0.2823047 -0.8308889 0.530058 0.169299 -0.8308889 0.530058 0.169299 -0.9429702 0.3298549 0.04475474 -0.9429702 0.3298549 0.04475474 -0.990782 0.1071955 -0.08282606 -0.990782 0.1071955 -0.08282606 -0.1241022 -0.4731183 0.8722142 -0.1241022 -0.4731183 0.8722142 -0.1241022 -0.4731183 0.8722142 -0.1241022 -0.4731183 0.8722142 -0.1241022 -0.4731183 0.8722142 -0.1241022 -0.4731183 0.8722142 -0.1241022 -0.4731183 0.8722142 -0.1241022 -0.4731183 0.8722142 -0.1241022 -0.4731183 0.8722142 -0.1241022 -0.4731183 0.8722142 -0.1241022 -0.4731183 0.8722142 -0.1241022 -0.4731183 0.8722142 -0.1241022 -0.4731183 0.8722142 -0.1241022 -0.4731183 0.8722142 -0.1241022 -0.4731183 0.8722142 -0.1241022 -0.4731183 0.8722142 -0.1241022 -0.4731183 0.8722142 -0.1241022 -0.4731183 0.8722142 -0.1241022 -0.4731183 0.8722142 -0.1241022 -0.4731183 0.8722142 -0.1241022 -0.4731183 0.8722142 -0.1241022 -0.4731183 0.8722142 -0.1241022 -0.4731183 0.8722142 -0.1241022 -0.4731183 0.8722142 -0.1241022 -0.4731183 0.8722142 -0.1241022 -0.4731183 0.8722142 -0.1241022 -0.4731183 0.8722142 -0.1241022 -0.4731183 0.8722142 -0.1241022 -0.4731183 0.8722142 -0.1241022 -0.4731183 0.8722142 -0.1241022 -0.4731183 0.8722142 -0.1241022 -0.4731183 0.8722142 -0.1241022 -0.4731183 0.8722142 -0.1241022 -0.4731183 0.8722142 -0.1241022 -0.4731183 0.8722142 -0.1241022 -0.4731183 0.8722142 -0.1241022 -0.4731183 0.8722142 -0.1241022 -0.4731183 0.8722142 -0.1241022 -0.4731183 0.8722142 -0.1241022 -0.4731183 0.8722142 -0.1241022 -0.4731183 0.8722142 -0.1241022 -0.4731183 0.8722142 -0.1241022 -0.4731183 0.8722142 -0.1241022 -0.4731183 0.8722142 -0.1241022 -0.4731183 0.8722142 -0.1241022 -0.4731183 0.8722142 -0.1241022 -0.4731183 0.8722142 -0.1241022 -0.4731183 0.8722142 -0.1241022 -0.4731183 0.8722142 -0.1241022 -0.4731183 0.8722142 -0.1241022 -0.4731183 0.8722142 -0.1241022 -0.4731183 0.8722142 -0.1241022 -0.4731183 0.8722142 -0.1241022 -0.4731183 0.8722142 -0.1241022 -0.4731183 0.8722142 -0.1241022 -0.4731183 0.8722142 -0.1241022 -0.4731183 0.8722142 -0.1241022 -0.4731183 0.8722142 -0.1241022 -0.4731183 0.8722142 -0.1241022 -0.4731183 0.8722142 -0.1241022 -0.4731183 0.8722142 -0.1241022 -0.4731183 0.8722142 -0.1241022 -0.4731183 0.8722142 -0.1241022 -0.4731183 0.8722142 -0.1241022 -0.4731183 0.8722142 -0.1241022 -0.4731183 0.8722142 -0.1241022 -0.4731183 0.8722142 -0.1241022 -0.4731183 0.8722142 -0.1241022 -0.4731183 0.8722142 -0.1241022 -0.4731183 0.8722142 -0.1241022 -0.4731183 0.8722142 -0.1241022 -0.4731183 0.8722142 -0.1241022 -0.4731183 0.8722142 -0.1241022 -0.4731183 0.8722142 -0.1241022 -0.4731183 0.8722142 -0.1241022 -0.4731183 0.8722142 -0.1241022 -0.4731183 0.8722142 -0.1241022 -0.4731183 0.8722142 -0.1241022 -0.4731183 0.8722142 -0.1241022 -0.4731183 0.8722142 -0.1241022 -0.4731183 0.8722142 -0.1241022 -0.4731183 0.8722142 -0.1241022 -0.4731183 0.8722142 -0.1241022 -0.4731183 0.8722142 -0.1241022 -0.4731183 0.8722142 -0.1241022 -0.4731183 0.8722142 -0.1241022 -0.4731183 0.8722142 -0.1241022 -0.4731183 0.8722142 -0.1241022 -0.4731183 0.8722142 -0.1241022 -0.4731183 0.8722142 -0.1241022 -0.4731183 0.8722142 -0.1241022 -0.4731183 0.8722142 -0.1241022 -0.4731183 0.8722142 -0.1241022 -0.4731183 0.8722142 -0.1241022 -0.4731183 0.8722142 -0.1241022 -0.4731183 0.8722142 -0.1241022 -0.4731183 0.8722142 -0.1241022 -0.4731183 0.8722142 -0.1241022 -0.4731183 0.8722142 -0.1241022 -0.4731183 0.8722142 -0.1241022 -0.4731183 0.8722142 -0.1241022 -0.4731183 0.8722142 -0.1241022 -0.4731183 0.8722142 -0.1241022 -0.4731183 0.8722142 -0.1241022 -0.4731183 0.8722142 -0.1241022 -0.4731183 0.8722142 -0.1241022 -0.4731183 0.8722142 -0.1241022 -0.4731183 0.8722142 -0.1241022 -0.4731183 0.8722142 -0.1241022 -0.4731183 0.8722142 -0.1241022 -0.4731183 0.8722142 -0.1241022 -0.4731183 0.8722142 -0.1241022 -0.4731183 0.8722142 -0.1241022 -0.4731183 0.8722142 -0.1241022 -0.4731183 0.8722142 -0.1241022 -0.4731183 0.8722142 -0.1241022 -0.4731183 0.8722142 -0.1241022 -0.4731183 0.8722142 -0.1241022 -0.4731183 0.8722142 -0.1241022 -0.4731183 0.8722142 -0.1241022 -0.4731183 0.8722142 -0.1241022 -0.4731183 0.8722142 -0.1241022 -0.4731183 0.8722142 -0.1241022 -0.4731183 0.8722142 -0.1241022 -0.4731183 0.8722142 -0.1241022 -0.4731183 0.8722142 -0.1241022 -0.4731183 0.8722142 -0.1241022 -0.4731183 0.8722142 -0.1241022 -0.4731183 0.8722142 -0.1241022 -0.4731183 0.8722142 -0.1241022 -0.4731183 0.8722142 -0.1241022 -0.4731183 0.8722142 -0.1241022 -0.4731183 0.8722142 -0.1241022 -0.4731183 0.8722142 -0.1241022 -0.4731183 0.8722142 -0.1241022 -0.4731183 0.8722142 -0.1241022 -0.4731183 0.8722142 -0.1241022 -0.4731183 0.8722142 -0.1241022 -0.4731183 0.8722142 -0.1241022 -0.4731183 0.8722142 -0.1241022 -0.4731183 0.8722142 -0.1241022 -0.4731183 0.8722142 -0.1241022 -0.4731183 0.8722142 -0.1241022 -0.4731183 0.8722142 -0.1241022 -0.4731183 0.8722142 -0.1241022 -0.4731183 0.8722142 -0.1241022 -0.4731183 0.8722142 -0.1241022 -0.4731183 0.8722142 -0.1241022 -0.4731183 0.8722142 -0.1241022 -0.4731183 0.8722142 -0.1241022 -0.4731183 0.8722142 -0.1241022 -0.4731183 0.8722142 -0.1241022 -0.4731183 0.8722142 -0.1241022 -0.4731183 0.8722142 -0.1241022 -0.4731183 0.8722142 -0.1241022 -0.4731183 0.8722142 -0.1241022 -0.4731183 0.8722142 -0.1241022 -0.4731183 0.8722142 -0.1241022 -0.4731183 0.8722142 -0.1241022 -0.4731183 0.8722142 -0.1241022 -0.4731183 0.8722142 -0.1241022 -0.4731183 0.8722142 -0.1241022 -0.4731183 0.8722142 -0.1241022 -0.4731183 0.8722142 -0.1241022 -0.4731183 0.8722142 -0.1241022 -0.4731183 0.8722142 -0.1241022 -0.4731183 0.8722142 -0.1241022 -0.4731183 0.8722142 -0.1241022 -0.4731183 0.8722142 -0.1241022 -0.4731183 0.8722142 -0.1241022 -0.4731183 0.8722142 -0.1241022 -0.4731183 0.8722142 -0.1241022 -0.4731183 0.8722142 -0.1241022 -0.4731183 0.8722142 -0.1241022 -0.4731183 0.8722142 -0.1241022 -0.4731183 0.8722142 -0.1241022 -0.4731183 0.8722142 -0.1241022 -0.4731183 0.8722142 -0.1241022 -0.4731183 0.8722142 -0.1241022 -0.4731183 0.8722142 -0.1241022 -0.4731183 0.8722142 -0.1241022 -0.4731183 0.8722142 -0.1241022 -0.4731183 0.8722142 -0.1241022 -0.4731183 0.8722142 -0.1241022 -0.4731183 0.8722142 -0.1241022 -0.4731183 0.8722142 0.9918213 -0.08556223 0.09470856 0.9918459 -0.03346849 0.1229695 0.9918459 -0.03346849 0.1229695 0.9883869 0.01874223 0.1507981 0.9918213 -0.08556223 0.09470856 0.9813323 -0.1886708 0.03728656 0.9813323 -0.1886708 0.03728656 0.9570679 -0.2891269 -0.0206566 0.9570679 -0.2891269 -0.0206566 0.9193682 -0.3855251 -0.07831029 0.9193682 -0.3855251 -0.07831029 0.868762 -0.4765123 -0.1348653 0.868762 -0.4765123 -0.1348653 0.8059616 -0.5608082 -0.1895257 0.8059616 -0.5608082 -0.1895257 0.7318461 -0.6372332 -0.2415267 0.7318461 -0.6372332 -0.2415267 0.6474606 -0.7047101 -0.2901352 0.6474606 -0.7047101 -0.2901352 0.5539825 -0.7622975 -0.3346729 0.5539825 -0.7622975 -0.3346729 0.4527231 -0.8091854 -0.3745141 0.4527231 -0.8091854 -0.3745141 0.3996219 -0.8284027 -0.3924937 0.3996219 -0.8284027 -0.3924937 0.3451196 -0.8447098 -0.409094 0.3451196 -0.8447098 -0.409094 0.2326644 -0.8683787 -0.4379334 0.2326644 -0.8683787 -0.4379334 0.1169406 -0.8798574 -0.4606255 0.1169406 -0.8798574 -0.4606255 -0.0004208896 -0.8789843 -0.4768505 -0.0004208896 -0.8789843 -0.4768505 -0.1177729 -0.8657728 -0.4863815 -0.1177729 -0.8657728 -0.4863815 -0.2334768 -0.8404072 -0.4890852 -0.2334768 -0.8404072 -0.4890852 -0.3459019 -0.8032443 -0.4849231 -0.3459019 -0.8032443 -0.4849231 -0.4534717 -0.7548055 -0.4739537 -0.4534717 -0.7548055 -0.4739537 -0.5546773 -0.6957697 -0.4563307 -0.5546773 -0.6957697 -0.4563307 -0.648091 -0.6269706 -0.432303 -0.648091 -0.6269706 -0.432303 -0.7324104 -0.5493681 -0.4022061 -0.7324104 -0.5493681 -0.4022061 -0.8064506 -0.4640508 -0.3664619 -0.8064506 -0.4640508 -0.3664619 -0.8691666 -0.3722234 -0.3255751 -0.8691666 -0.3722234 -0.3255751 -0.8959998 -0.3242629 -0.3033776 -0.8959998 -0.3242629 -0.3033776 -0.9196847 -0.2751648 -0.2801151 -0.9196847 -0.2751648 -0.2801151 -0.9533146 -0.1870269 -0.2370912 -0.9533146 -0.1870269 -0.2370912 -0.9710779 -0.1227854 -0.2047719 -0.9710779 -0.1227854 -0.2047719 -0.9835128 -0.05787021 -0.171329 -0.9835128 -0.05787021 -0.171329 -0.9918459 0.03346814 -0.1229697 -0.9918459 0.03346814 -0.1229697 -0.988312 0.1373641 -0.06611017 -0.988312 0.1373641 -0.06611017 -0.9709046 0.2393219 -0.008328053 -0.9709046 0.2393219 -0.008328053 -0.93987 0.3379161 0.04956851 -0.93987 0.3379161 0.04956851 -0.8956375 0.4317782 0.106776 -0.8956375 0.4317782 0.106776 -0.8388304 0.5195788 0.1624848 -0.8388304 0.5195788 0.1624848 -0.7702682 0.6000627 0.2158973 -0.7702682 0.6000627 0.2158973 -0.6908795 0.6721418 0.2662911 -0.6908795 0.6721418 0.2662911 -0.6017763 0.7347956 0.3129547 -0.6017763 0.7347956 0.3129547 -0.5042444 0.7871212 0.3552151 -0.5042444 0.7871212 0.3552151 -0.3996106 0.8284064 0.3924973 -0.3996106 0.8284064 0.3924973 -0.289381 0.8580553 0.4242637 -0.289381 0.8580553 0.4242637 -0.1751094 0.8756561 0.4500701 -0.1751094 0.8756561 0.4500701 -0.05835283 0.880968 0.469564 -0.05835283 0.880968 0.469564 0.0004007429 0.8789855 0.4768483 0.0004007429 0.8789855 0.4768483 0.05918315 0.8739153 0.4824619 0.9883869 0.01874223 0.1507981 0.9710779 0.1227854 0.2047719 0.9710779 0.1227854 0.2047719 0.9401381 0.2251023 0.2558698 0.9401381 0.2251023 0.2558698 0.8959978 0.3242666 0.3033794 0.8959978 0.3242666 0.3033794 0.8392807 0.4188754 0.3466284 0.8392807 0.4188754 0.3466284 0.7707904 0.5075939 0.3850072 0.7707904 0.5075939 0.3850072 0.6914604 0.5892084 0.4179903 0.6914604 0.5892084 0.4179903 0.6024276 0.6625443 0.4451022 0.6024276 0.6625443 0.4451022 0.5049749 0.7265558 0.4659582 0.5049749 0.7265558 0.4659582 0.4003826 0.7803989 0.4802827 0.4003826 0.7803989 0.4802827 0.2901931 0.8232736 0.4878612 0.2901931 0.8232736 0.4878612 0.1759708 0.8545828 0.4885923 0.1759708 0.8545828 0.4885923 0.05918315 0.8739153 0.4824619</float_array>
          <technique_common>
            <accessor count="744" source="#normals-array-array" stride="3">
              <param type="float" name="X"/>
              <param type="float" name="Y"/>
              <param type="float" name="Z"/>
            </accessor>
          </technique_common>
        </source>
        <vertices id="verts-array-vertices">
          <input semantic="POSITION" source="#verts-array"/>
        </vertices>
        <triangles count="760" material="material0">
          <input offset="0" semantic="VERTEX" source="#verts-array-vertices"/>
          <input offset="1" semantic="NORMAL" source="#normals-array"/>
          <p>0 0 1 1 2 2 3 3 4 4 5 5 6 6 7 7 8 8 9 9 10 10 11 11 10 10 9 9 12 12 13 13 12 12 9 9 12 12 13 13 14 14 15 15 14 14 13 13 14 14 15 15 16 16 17 17 16 16 15 15 16 16 17 17 18 18 19 19 18 18 17 17 18 18 19 19 20 20 21 21 20 20 19 19 20 20 21 21 22 22 5 5 23 23 3 3 24 24 3 3 23 23 3 3 24 24 25 25 26 26 25 25 24 24 25 25 26 26 27 27 28 28 27 27 26 26 27 27 28 28 29 29 30 30 29 29 28 28 29 29 30 30 31 31 32 32 31 31 30 30 31 31 32 32 33 33 8 8 7 7 34 34 7 7 35 35 36 36 37 37 38 38 39 39 40 40 39 39 38 38 39 39 40 40 41 41 42 42 41 41 40 40 41 41 42 42 4 4 43 43 4 4 42 42 4 4 43 43 5 5 32 32 34 34 33 33 7 7 33 33 34 34 33 33 7 7 44 44 36 36 44 44 7 7 11 11 45 45 9 9 46 46 9 9 45 45 9 9 46 46 47 47 48 48 47 47 46 46 47 47 48 48 49 49 49 49 50 50 47 47 51 51 47 47 50 50 47 47 51 51 52 52 53 53 52 52 51 51 52 52 53 53 54 54 6 6 8 8 55 55 56 56 55 55 8 8 55 55 56 56 57 57 58 58 57 57 56 56 57 57 58 58 59 59 22 22 21 21 60 60 61 61 60 60 21 21 60 60 61 61 62 62 63 63 62 62 61 61 62 62 63 63 35 35 64 64 35 35 63 63 35 35 64 64 36 36 58 58 65 65 66 66 66 66 65 65 67 67 68 68 69 69 70 70 71 71 70 70 69 69 70 70 71 71 72 72 66 66 73 73 58 58 74 74 58 58 73 73 58 58 74 74 59 59 75 75 59 59 74 74 59 59 75 75 76 76 77 77 76 76 75 75 76 76 77 77 53 53 78 78 53 53 77 77 53 53 78 78 54 54 68 68 79 79 69 69 80 80 69 69 79 79 69 69 80 80 81 81 82 82 81 81 80 80 81 81 82 82 65 65 83 83 65 65 82 82 65 65 83 83 67 67 72 72 84 84 70 70 85 85 70 70 84 84 70 70 85 85 39 39 86 86 39 39 85 85 39 39 86 86 37 37 87 87 88 88 89 89 90 90 91 91 92 92 93 93 94 94 1 1 95 95 1 1 94 94 1 1 95 95 2 2 96 96 2 2 95 95 2 2 96 96 97 97 97 97 98 98 2 2 99 99 2 2 98 98 2 2 99 99 100 100 101 101 100 100 99 99 100 100 101 101 102 102 92 92 91 91 103 103 104 104 103 103 91 91 103 103 104 104 105 105 106 106 105 105 104 104 105 105 106 106 88 88 107 107 88 88 106 106 88 88 107 107 89 89 89 89 108 108 87 87 109 109 87 87 108 108 87 87 109 109 110 110 111 111 110 110 109 109 110 110 111 111 1 1 112 112 1 1 111 111 1 1 112 112 93 93 113 113 114 114 115 115 116 116 115 115 114 114 117 117 118 118 47 47 119 119 47 47 118 118 47 47 119 119 9 9 120 120 9 9 119 119 9 9 120 120 121 121 115 115 121 121 120 120 121 121 115 115 122 122 116 116 122 122 115 115 92 92 123 123 90 90 124 124 90 90 123 123 90 90 124 124 113 113 125 125 113 113 124 124 113 113 125 125 114 114 117 117 126 126 118 118 127 127 118 118 126 126 118 118 127 127 128 128 129 129 128 128 127 127 128 128 129 129 101 101 130 130 101 101 129 129 101 101 130 130 102 102 131 131 132 132 133 133 134 134 133 133 132 132 133 133 134 134 135 135 135 135 136 136 133 133 137 137 133 133 136 136 133 133 137 137 2 2 138 138 2 2 137 137 2 2 138 138 139 139 139 139 140 140 2 2 141 141 2 2 140 140 2 2 141 141 0 0 142 142 143 143 133 133 144 144 133 133 143 143 133 133 144 144 131 131 145 145 131 131 144 144 131 131 145 145 146 146 147 147 148 148 149 149 150 150 149 149 148 148 149 149 150 150 151 151 131 131 151 151 150 150 151 151 131 131 152 152 146 146 152 152 131 131 153 153 154 154 133 133 155 155 133 133 154 154 133 133 155 155 142 142 147 147 156 156 148 148 157 157 148 148 156 156 148 148 157 157 158 158 159 159 158 158 157 157 158 158 159 159 160 160 159 159 161 161 160 160 162 162 160 160 161 161 160 160 162 162 163 163 164 164 163 163 162 162 163 163 164 164 165 165 165 165 164 164 166 166 167 167 166 166 164 164 166 166 167 167 168 168 169 169 168 168 167 167 168 168 169 169 170 170 171 171 172 172 39 39 173 173 39 39 172 172 39 39 173 173 70 70 174 174 70 70 173 173 70 70 174 174 175 175 176 176 175 175 174 174 175 175 176 176 177 177 153 153 178 178 154 154 179 179 154 154 178 178 154 154 179 179 180 180 181 181 180 180 179 179 180 180 181 181 176 176 182 182 176 176 181 181 176 176 182 182 177 177 171 171 183 183 172 172 184 184 172 172 183 183 172 172 184 184 169 169 185 185 169 169 184 184 169 169 185 185 170 170 186 186 187 187 188 188 189 189 188 188 187 187 188 188 189 189 190 190 191 191 190 190 189 189 190 190 191 191 192 192 193 193 192 192 191 191 192 192 193 193 194 194 195 195 194 194 193 193 194 194 195 195 196 196 197 197 196 196 195 195 196 196 197 197 198 198 199 199 198 198 197 197 198 198 199 199 200 200 201 201 200 200 199 199 200 200 201 201 202 202 203 203 202 202 201 201 202 202 203 203 204 204 205 205 204 204 203 203 204 204 205 205 206 206 207 207 206 206 205 205 206 206 207 207 208 208 209 209 208 208 207 207 208 208 209 209 210 210 211 211 210 210 209 209 210 210 211 211 212 212 213 213 212 212 211 211 212 212 213 213 214 214 215 215 214 214 213 213 214 214 215 215 216 216 217 217 216 216 215 215 216 216 217 217 218 218 219 219 218 218 217 217 218 218 219 219 220 220 221 221 220 220 219 219 220 220 221 221 222 222 223 223 222 222 221 221 222 222 223 223 224 224 225 225 224 224 223 223 224 224 225 225 226 226 227 227 226 226 225 225 226 226 227 227 228 228 229 229 228 228 227 227 228 228 229 229 230 230 231 231 230 230 229 229 230 230 231 231 232 232 233 233 232 232 231 231 232 232 233 233 186 186 187 187 186 186 233 233 234 234 235 235 236 236 237 237 236 236 235 235 236 236 237 237 238 238 239 239 238 238 237 237 238 238 239 239 240 240 241 241 240 240 239 239 240 240 241 241 242 242 243 243 242 242 241 241 242 242 243 243 244 244 245 245 244 244 243 243 244 244 245 245 246 246 247 247 246 246 245 245 246 246 247 247 248 248 249 249 248 248 247 247 248 248 249 249 250 250 251 251 250 250 249 249 250 250 251 251 252 252 253 253 252 252 251 251 252 252 253 253 254 254 255 255 254 254 253 253 254 254 255 255 256 256 257 257 256 256 255 255 256 256 257 257 258 258 259 259 258 258 257 257 258 258 259 259 260 260 261 261 260 260 259 259 260 260 261 261 262 262 263 263 262 262 261 261 262 262 263 263 264 264 265 265 264 264 263 263 264 264 265 265 266 266 267 267 266 266 265 265 266 266 267 267 268 268 269 269 268 268 267 267 268 268 269 269 270 270 271 271 270 270 269 269 270 270 271 271 272 272 273 273 272 272 271 271 272 272 273 273 274 274 275 275 274 274 273 273 274 274 275 275 276 276 277 277 276 276 275 275 276 276 277 277 278 278 279 279 278 278 277 277 278 278 279 279 280 280 281 281 280 280 279 279 280 280 281 281 234 234 235 235 234 234 281 281 282 282 283 283 284 284 285 285 284 284 283 283 284 284 285 285 286 286 287 287 286 286 285 285 286 286 287 287 288 288 289 289 288 288 287 287 288 288 289 289 290 290 291 291 290 290 289 289 290 290 291 291 292 292 293 293 292 292 291 291 292 292 293 293 294 294 295 295 294 294 293 293 294 294 295 295 296 296 297 297 296 296 295 295 296 296 297 297 298 298 299 299 298 298 297 297 298 298 299 299 300 300 301 301 300 300 299 299 300 300 301 301 302 302 303 303 302 302 301 301 302 302 303 303 304 304 305 305 304 304 303 303 304 304 305 305 306 306 307 307 306 306 305 305 306 306 307 307 308 308 309 309 308 308 307 307 308 308 309 309 310 310 311 311 310 310 309 309 310 310 311 311 312 312 313 313 312 312 311 311 312 312 313 313 314 314 315 315 314 314 313 313 314 314 315 315 316 316 317 317 316 316 315 315 316 316 317 317 318 318 319 319 318 318 317 317 318 318 319 319 320 320 321 321 320 320 319 319 320 320 321 321 322 322 323 323 322 322 321 321 322 322 323 323 324 324 325 325 324 324 323 323 324 324 325 325 326 326 327 327 326 326 325 325 326 326 327 327 328 328 329 329 328 328 327 327 328 328 329 329 282 282 283 283 282 282 329 329 330 330 331 331 332 332 333 333 332 332 331 331 332 332 333 333 334 334 335 335 334 334 333 333 334 334 335 335 336 336 337 337 336 336 335 335 336 336 337 337 338 338 339 339 338 338 337 337 338 338 339 339 340 340 341 341 340 340 339 339 340 340 341 341 342 342 343 343 342 342 341 341 342 342 343 343 344 344 345 345 344 344 343 343 344 344 345 345 346 346 347 347 346 346 345 345 346 346 347 347 348 348 349 349 348 348 347 347 348 348 349 349 350 350 351 351 350 350 349 349 350 350 351 351 352 352 353 353 352 352 351 351 352 352 353 353 354 354 355 355 354 354 353 353 354 354 355 355 356 356 357 357 356 356 355 355 356 356 357 357 358 358 359 359 358 358 357 357 358 358 359 359 360 360 361 361 360 360 359 359 360 360 361 361 362 362 363 363 362 362 361 361 362 362 363 363 364 364 365 365 364 364 363 363 364 364 365 365 366 366 367 367 366 366 365 365 366 366 367 367 368 368 369 369 368 368 367 367 368 368 369 369 370 370 371 371 370 370 369 369 370 370 371 371 372 372 373 373 372 372 371 371 372 372 373 373 374 374 375 375 374 374 373 373 374 374 375 375 376 376 377 377 376 376 375 375 376 376 377 377 378 378 379 379 378 378 377 377 378 378 379 379 380 380 381 381 380 380 379 379 380 380 381 381 382 382 383 383 382 382 381 381 382 382 383 383 384 384 385 385 384 384 383 383 384 384 385 385 386 386 387 387 386 386 385 385 386 386 387 387 388 388 389 389 388 388 387 387 388 388 389 389 390 390 391 391 390 390 389 389 390 390 391 391 392 392 393 393 392 392 391 391 392 392 393 393 330 330 331 331 330 330 393 393 394 394 395 395 396 396 397 397 396 396 395 395 396 396 397 397 398 398 399 399 398 398 397 397 398 398 399 399 400 400 401 401 400 400 399 399 400 400 401 401 402 402 403 403 402 402 401 401 402 402 403 403 404 404 405 405 404 404 403 403 404 404 405 405 406 406 407 407 406 406 405 405 406 406 407 407 408 408 409 409 408 408 407 407 408 408 409 409 410 410 411 411 410 410 409 409 410 410 411 411 412 412 413 413 412 412 411 411 412 412 413 413 414 414 415 415 414 414 413 413 414 414 415 415 416 416 417 417 416 416 415 415 416 416 417 417 418 418 419 419 418 418 417 417 418 418 419 419 420 420 421 421 420 420 419 419 420 420 421 421 422 422 423 423 422 422 421 421 422 422 423 423 424 424 425 425 424 424 423 423 424 424 425 425 426 426 427 427 426 426 425 425 426 426 427 427 428 428 429 429 428 428 427 427 428 428 429 429 430 430 431 431 430 430 429 429 430 430 431 431 432 432 433 433 432 432 431 431 432 432 433 433 434 434 435 435 434 434 433 433 434 434 435 435 436 436 437 437 436 436 435 435 436 436 437 437 438 438 439 439 438 438 437 437 438 438 439 439 440 440 441 441 440 440 439 439 440 440 441 441 394 394 395 395 394 394 441 441 442 442 443 443 444 444 444 444 445 445 442 442 446 446 442 442 445 445 442 442 446 446 447 447 448 448 447 447 446 446 447 447 448 448 449 449 450 450 449 449 448 448 449 449 450 450 451 451 452 452 453 453 454 454 455 455 454 454 453 453 454 454 455 455 456 456 456 456 457 457 454 454 458 458 454 454 457 457 454 454 458 458 459 459 460 460 459 459 458 458 459 459 460 460 461 461 451 451 462 462 449 449 463 463 449 449 462 462 449 449 463 463 464 464 465 465 464 464 463 463 464 464 465 465 466 466 452 452 467 467 453 453 468 468 453 453 467 467 453 453 468 468 469 469 470 470 469 469 468 468 469 469 470 470 471 471 466 466 472 472 464 464 473 473 464 464 472 472 464 464 473 473 474 474 475 475 474 474 473 473 474 474 475 475 476 476 461 461 477 477 459 459 478 478 459 459 477 477 459 459 478 478 479 479 480 480 479 479 478 478 479 479 480 480 481 481 482 482 481 481 480 480 481 481 482 482 483 483 484 484 483 483 482 482 483 483 484 484 485 485 486 486 485 485 484 484 485 485 486 486 487 487 488 488 489 489 490 490 491 491 490 490 489 489 490 490 491 491 492 492 470 470 493 493 471 471 492 492 471 471 493 493 471 471 492 492 494 494 491 491 494 494 492 492 494 494 491 491 495 495 496 496 495 495 491 491 495 495 496 496 497 497 498 498 497 497 496 496 497 497 498 498 499 499 500 500 499 499 498 498 488 488 501 501 489 489 502 502 489 489 501 501 489 489 502 502 503 503 504 504 503 503 502 502 503 503 504 504 475 475 505 505 475 475 504 504 475 475 505 505 476 476 486 486 506 506 487 487 507 507 487 487 506 506 487 487 507 507 508 508 509 509 508 508 507 507 508 508 509 509 510 510 511 511 510 510 509 509 510 510 511 511 512 512 513 513 512 512 511 511 500 500 514 514 499 499 515 515 499 499 514 514 499 499 515 515 513 513 516 516 513 513 515 515 513 513 516 516 512 512 498 498 517 517 500 500 518 518 500 500 517 517 500 500 518 518 519 519 520 520 519 519 518 518 519 519 520 520 521 521 522 522 521 521 520 520 521 521 522 522 523 523 524 524 523 523 522 522 523 523 524 524 443 443 525 525 443 443 524 524 443 443 525 525 444 444 526 526 527 527 528 528 526 526 528 528 529 529 530 530 529 529 528 528 529 529 530 530 531 531 532 532 531 531 530 530 531 531 532 532 533 533 533 533 534 534 531 531 535 535 531 531 534 534 531 531 535 535 536 536 537 537 536 536 535 535 536 536 537 537 538 538 538 538 539 539 536 536 540 540 536 536 539 539 536 536 540 540 541 541 542 542 541 541 540 540 541 541 542 542 543 543 544 544 545 545 546 546 547 547 546 546 545 545 546 546 547 547 548 548 549 549 548 548 547 547 548 548 549 549 542 542 550 550 542 542 549 549 542 542 550 550 543 543 551 551 552 552 553 553 554 554 553 553 552 552 553 553 554 554 555 555 556 556 555 555 554 554 555 555 556 556 526 526 557 557 526 526 556 556 526 526 557 557 527 527 544 544 546 546 464 464 558 558 464 464 546 546 464 464 558 558 449 449 559 559 449 449 558 558 449 449 559 559 560 560 561 561 560 560 559 559 560 560 561 561 562 562 563 563 564 564 565 565 566 566 565 565 564 564 565 565 566 566 567 567 551 551 567 567 566 566 567 567 551 551 568 568 553 553 568 568 551 551 563 563 569 569 564 564 570 570 564 564 569 569 564 564 570 570 561 561 571 571 561 561 570 570 561 561 571 571 562 562 572 572 573 573 536 536 573 573 574 574 536 536 575 575 536 536 574 574 536 536 575 575 531 531 576 576 577 577 578 578 579 579 578 578 577 577 578 578 579 579 580 580 580 580 581 581 578 578 582 582 578 578 581 581 578 578 582 582 536 536 583 583 536 536 582 582 536 536 583 583 572 572 584 584 585 585 578 578 586 586 578 578 585 585 578 578 586 586 576 576 587 587 576 576 586 586 576 576 587 587 588 588 588 588 589 589 576 576 590 590 576 576 589 589 576 576 590 590 591 591 592 592 591 591 590 590 591 591 592 592 593 593 592 592 594 594 593 593 595 595 593 593 594 594 593 593 595 595 596 596 597 597 598 598 599 599 599 599 598 598 600 600 601 601 602 602 603 603 603 603 602 602 604 604 454 454 604 604 602 602 604 604 454 454 605 605 459 459 605 605 454 454 605 605 459 459 599 599 606 606 599 599 459 459 599 599 606 606 597 597 595 595 607 607 596 596 608 608 596 596 607 607 596 596 608 608 609 609 610 610 609 609 608 608 609 609 610 610 611 611 612 612 611 611 610 610 611 611 612 612 613 613 614 614 613 613 612 612 613 613 614 614 615 615 616 616 615 615 614 614 598 598 617 617 600 600 618 618 600 600 617 617 600 600 618 618 616 616 619 619 616 616 618 618 616 616 619 619 615 615 620 620 621 621 578 578 622 622 578 578 621 621 578 578 622 622 584 584 620 620 623 623 621 621 624 624 621 621 623 623 621 621 624 624 625 625 626 626 625 625 624 624 625 625 626 626 603 603 627 627 603 603 626 626 603 603 627 627 601 601 628 628 629 629 630 630 630 630 629 629 631 631 630 630 632 632 628 628 633 633 628 628 632 632 628 628 633 633 634 634 635 635 634 634 633 633 634 634 635 635 636 636 637 637 636 636 635 635 636 636 637 637 638 638 639 639 638 638 637 637 638 638 639 639 640 640 641 641 640 640 639 639 640 640 641 641 642 642 643 643 642 642 641 641 642 642 643 643 644 644 645 645 644 644 643 643 644 644 645 645 646 646 647 647 646 646 645 645 646 646 647 647 648 648 649 649 648 648 647 647 648 648 649 649 650 650 650 650 649 649 651 651 652 652 651 651 649 649 651 651 652 652 653 653 652 652 654 654 653 653 655 655 653 653 654 654 653 653 655 655 656 656 657 657 656 656 655 655 656 656 657 657 658 658 659 659 658 658 657 657 658 658 659 659 660 660 661 661 660 660 659 659 660 660 661 661 662 662 663 663 662 662 661 661 662 662 663 663 664 664 665 665 664 664 663 663 664 664 665 665 666 666 667 667 666 666 665 665 666 666 667 667 668 668 669 669 668 668 667 667 668 668 669 669 670 670 671 671 670 670 669 669 670 670 671 671 672 672 673 673 672 672 671 671 672 672 673 673 674 674 675 675 674 674 673 673 674 674 675 675 676 676 677 677 676 676 675 675 676 676 677 677 678 678 678 678 677 677 679 679 680 680 679 679 677 677 679 679 680 680 681 681 680 680 682 682 681 681 683 683 681 681 682 682 681 681 683 683 684 684 684 684 683 683 685 685 686 686 685 685 683 683 685 685 686 686 687 687 686 686 688 688 687 687 689 689 687 687 688 688 687 687 689 689 690 690 691 691 690 690 689 689 690 690 691 691 692 692 693 693 692 692 691 691 692 692 693 693 694 694 695 695 694 694 693 693 694 694 695 695 696 696 697 697 696 696 695 695 696 696 697 697 698 698 699 699 698 698 697 697 698 698 699 699 700 700 701 701 700 700 699 699 700 700 701 701 702 702 703 703 702 702 701 701 702 702 703 703 704 704 705 705 704 704 703 703 704 704 705 705 706 706 707 707 706 706 705 705 706 706 707 707 708 708 709 709 708 708 707 707 708 708 709 709 710 710 711 711 710 710 709 709 710 710 711 711 712 712 713 713 712 712 711 711 712 712 713 713 714 714 715 715 714 714 713 713 714 714 715 715 716 716 716 716 715 715 717 717 718 718 717 717 715 715 717 717 718 718 719 719 629 629 720 720 631 631 721 721 631 631 720 720 631 631 721 721 722 722 723 723 722 722 721 721 722 722 723 723 724 724 725 725 724 724 723 723 724 724 725 725 726 726 727 727 726 726 725 725 726 726 727 727 728 728 729 729 728 728 727 727 728 728 729 729 730 730 731 731 730 730 729 729 730 730 731 731 732 732 733 733 732 732 731 731 732 732 733 733 734 734 735 735 734 734 733 733 734 734 735 735 736 736 737 737 736 736 735 735 736 736 737 737 738 738 739 739 738 738 737 737 738 738 739 739 740 740 741 741 740 740 739 739 740 740 741 741 742 742 719 719 742 742 741 741 742 742 719 719 743 743 718 718 743 743 719 719</p>
        </triangles>
      </mesh>
    </geometry>
  </library_geometries>
  <library_materials>
    <material id="b17073249ff949578247d91db85d45c8" name="defaultmaterial">
      <instance_effect url="#95d9757644e34720a97d440e08460978"/>
    </material>
  </library_materials>
  <library_visual_scenes>
    <visual_scene id="scene">
      <node id="node0" name="node0">
        <instance_geometry url="#b3120a9ed6c945dfb28f544801e2ddf7">
          <bind_material>
            <technique_common>
              <instance_material symbol="material0" target="#b17073249ff949578247d91db85d45c8"/>
            </technique_common>
          </bind_material>
        </instance_geometry>
      </node>
    </visual_scene>
  </library_visual_scenes>
  <scene>
    <instance_visual_scene url="#scene"/>
  </scene>
</COLLADA>
